<svg xmlns="http://www.w3.org/2000/svg" xmlns:xlink="http://www.w3.org/1999/xlink" width="120" zoomAndPan="magnify" viewBox="0 0 90 89.999999" height="120" preserveAspectRatio="xMidYMid meet" version="1.0"><path fill="#fbab16" d="M 90 45 C 90 46.472656 89.929688 47.945312 89.785156 49.410156 C 89.640625 50.878906 89.421875 52.332031 89.136719 53.777344 C 88.847656 55.222656 88.488281 56.652344 88.0625 58.0625 C 87.632812 59.472656 87.136719 60.859375 86.574219 62.222656 C 86.011719 63.582031 85.382812 64.914062 84.6875 66.210938 C 83.992188 67.511719 83.234375 68.773438 82.417969 70 C 81.597656 71.226562 80.71875 72.410156 79.785156 73.546875 C 78.851562 74.6875 77.863281 75.777344 76.820312 76.820312 C 75.777344 77.863281 74.6875 78.851562 73.546875 79.785156 C 72.410156 80.71875 71.226562 81.597656 70 82.417969 C 68.773438 83.234375 67.511719 83.992188 66.210938 84.6875 C 64.914062 85.382812 63.582031 86.011719 62.222656 86.574219 C 60.859375 87.136719 59.472656 87.632812 58.0625 88.0625 C 56.652344 88.488281 55.222656 88.847656 53.777344 89.136719 C 52.332031 89.421875 50.878906 89.640625 49.410156 89.785156 C 47.945312 89.929688 46.472656 90 45 90 C 43.527344 90 42.054688 89.929688 40.589844 89.785156 C 39.121094 89.640625 37.667969 89.421875 36.222656 89.136719 C 34.777344 88.847656 33.347656 88.488281 31.9375 88.0625 C 30.527344 87.632812 29.140625 87.136719 27.777344 86.574219 C 26.417969 86.011719 25.085938 85.382812 23.789062 84.6875 C 22.488281 83.992188 21.226562 83.234375 20 82.417969 C 18.773438 81.597656 17.589844 80.71875 16.453125 79.785156 C 15.3125 78.851562 14.222656 77.863281 13.179688 76.820312 C 12.136719 75.777344 11.148438 74.6875 10.214844 73.546875 C 9.28125 72.410156 8.402344 71.226562 7.582031 70 C 6.765625 68.773438 6.007812 67.511719 5.3125 66.210938 C 4.617188 64.914062 3.988281 63.582031 3.425781 62.222656 C 2.863281 60.859375 2.367188 59.472656 1.9375 58.0625 C 1.511719 56.652344 1.152344 55.222656 0.863281 53.777344 C 0.578125 52.332031 0.359375 50.878906 0.214844 49.410156 C 0.0703125 47.945312 0 46.472656 0 45 C 0 43.527344 0.0703125 42.054688 0.214844 40.589844 C 0.359375 39.121094 0.578125 37.667969 0.863281 36.222656 C 1.152344 34.777344 1.511719 33.347656 1.9375 31.9375 C 2.367188 30.527344 2.863281 29.140625 3.425781 27.777344 C 3.988281 26.417969 4.617188 25.085938 5.3125 23.789062 C 6.007812 22.488281 6.765625 21.226562 7.582031 20 C 8.402344 18.773438 9.28125 17.589844 10.214844 16.453125 C 11.148438 15.3125 12.136719 14.222656 13.179688 13.179688 C 14.222656 12.136719 15.3125 11.148438 16.453125 10.214844 C 17.589844 9.28125 18.773438 8.402344 20 7.582031 C 21.226562 6.765625 22.488281 6.007812 23.789062 5.3125 C 25.085938 4.617188 26.417969 3.988281 27.777344 3.425781 C 29.140625 2.863281 30.527344 2.367188 31.9375 1.9375 C 33.347656 1.511719 34.777344 1.152344 36.222656 0.863281 C 37.667969 0.578125 39.121094 0.359375 40.589844 0.214844 C 42.054688 0.0703125 43.527344 0 45 0 C 46.472656 0 47.945312 0.0703125 49.410156 0.214844 C 50.878906 0.359375 52.332031 0.578125 53.777344 0.863281 C 55.222656 1.152344 56.652344 1.511719 58.0625 1.9375 C 59.472656 2.367188 60.859375 2.863281 62.222656 3.425781 C 63.582031 3.988281 64.914062 4.617188 66.210938 5.3125 C 67.511719 6.007812 68.773438 6.765625 70 7.582031 C 71.226562 8.402344 72.410156 9.28125 73.546875 10.214844 C 74.6875 11.148438 75.777344 12.136719 76.820312 13.179688 C 77.863281 14.222656 78.851562 15.3125 79.785156 16.453125 C 80.71875 17.589844 81.597656 18.773438 82.417969 20 C 83.234375 21.226562 83.992188 22.488281 84.6875 23.789062 C 85.382812 25.085938 86.011719 26.417969 86.574219 27.777344 C 87.136719 29.140625 87.632812 30.527344 88.0625 31.9375 C 88.488281 33.347656 88.847656 34.777344 89.136719 36.222656 C 89.421875 37.667969 89.640625 39.121094 89.785156 40.589844 C 89.929688 42.054688 90 43.527344 90 45 Z M 90 45 " fill-opacity="1" fill-rule="nonzero"/><path fill="#f9cf00" d="M 83.570312 41.183594 C 83.570312 42.445312 83.507812 43.707031 83.386719 44.964844 C 83.261719 46.222656 83.078125 47.46875 82.832031 48.707031 C 82.582031 49.945312 82.277344 51.171875 81.910156 52.378906 C 81.542969 53.589844 81.117188 54.777344 80.636719 55.945312 C 80.152344 57.109375 79.613281 58.25 79.015625 59.367188 C 78.421875 60.480469 77.773438 61.5625 77.070312 62.613281 C 76.367188 63.664062 75.617188 64.675781 74.816406 65.652344 C 74.015625 66.628906 73.167969 67.5625 72.273438 68.457031 C 71.378906 69.351562 70.445312 70.199219 69.46875 71 C 68.492188 71.800781 67.480469 72.550781 66.429688 73.253906 C 65.378906 73.957031 64.296875 74.605469 63.183594 75.199219 C 62.066406 75.796875 60.929688 76.335938 59.761719 76.820312 C 58.59375 77.300781 57.40625 77.726562 56.195312 78.09375 C 54.988281 78.460938 53.765625 78.765625 52.523438 79.011719 C 51.285156 79.257812 50.039062 79.445312 48.78125 79.570312 C 47.523438 79.691406 46.261719 79.753906 45 79.753906 C 43.738281 79.753906 42.476562 79.691406 41.21875 79.570312 C 39.960938 79.445312 38.714844 79.257812 37.476562 79.011719 C 36.234375 78.765625 35.011719 78.460938 33.804688 78.09375 C 32.59375 77.726562 31.40625 77.300781 30.238281 76.820312 C 29.070312 76.335938 27.933594 75.796875 26.816406 75.199219 C 25.703125 74.605469 24.621094 73.957031 23.570312 73.253906 C 22.519531 72.550781 21.507812 71.800781 20.53125 71 C 19.554688 70.199219 18.621094 69.351562 17.726562 68.457031 C 16.832031 67.5625 15.984375 66.628906 15.183594 65.652344 C 14.382812 64.675781 13.628906 63.664062 12.929688 62.613281 C 12.226562 61.5625 11.578125 60.480469 10.984375 59.367188 C 10.386719 58.25 9.847656 57.109375 9.363281 55.945312 C 8.882812 54.777344 8.457031 53.589844 8.089844 52.378906 C 7.722656 51.171875 7.417969 49.945312 7.167969 48.707031 C 6.921875 47.46875 6.738281 46.222656 6.613281 44.964844 C 6.492188 43.707031 6.429688 42.445312 6.429688 41.183594 C 6.429688 39.917969 6.492188 38.660156 6.613281 37.402344 C 6.738281 36.144531 6.921875 34.898438 7.167969 33.65625 C 7.417969 32.417969 7.722656 31.195312 8.089844 29.988281 C 8.457031 28.777344 8.882812 27.589844 9.363281 26.421875 C 9.847656 25.253906 10.386719 24.113281 10.984375 23 C 11.578125 21.886719 12.226562 20.804688 12.929688 19.753906 C 13.628906 18.703125 14.382812 17.691406 15.183594 16.714844 C 15.984375 15.738281 16.832031 14.800781 17.726562 13.910156 C 18.621094 13.015625 19.554688 12.167969 20.53125 11.367188 C 21.507812 10.566406 22.519531 9.8125 23.570312 9.113281 C 24.621094 8.410156 25.703125 7.761719 26.816406 7.167969 C 27.933594 6.570312 29.070312 6.03125 30.238281 5.546875 C 31.40625 5.0625 32.59375 4.640625 33.804688 4.273438 C 35.011719 3.90625 36.234375 3.597656 37.476562 3.351562 C 38.714844 3.105469 39.960938 2.921875 41.21875 2.796875 C 42.476562 2.671875 43.738281 2.613281 45 2.613281 C 46.261719 2.613281 47.523438 2.671875 48.78125 2.796875 C 50.039062 2.921875 51.285156 3.105469 52.523438 3.351562 C 53.765625 3.597656 54.988281 3.90625 56.195312 4.273438 C 57.40625 4.640625 58.59375 5.0625 59.761719 5.546875 C 60.929688 6.03125 62.066406 6.570312 63.183594 7.167969 C 64.296875 7.761719 65.378906 8.410156 66.429688 9.113281 C 67.480469 9.8125 68.492188 10.566406 69.46875 11.367188 C 70.445312 12.167969 71.378906 13.015625 72.273438 13.910156 C 73.167969 14.800781 74.015625 15.738281 74.816406 16.714844 C 75.617188 17.691406 76.367188 18.703125 77.070312 19.753906 C 77.773438 20.804688 78.421875 21.886719 79.015625 23 C 79.613281 24.113281 80.152344 25.253906 80.636719 26.421875 C 81.117188 27.589844 81.542969 28.777344 81.910156 29.988281 C 82.277344 31.195312 82.582031 32.417969 82.832031 33.65625 C 83.078125 34.898438 83.261719 36.144531 83.386719 37.402344 C 83.507812 38.660156 83.570312 39.917969 83.570312 41.183594 Z M 83.570312 41.183594 " fill-opacity="1" fill-rule="nonzero"/><path fill="#231f20" d="M 15.871094 31.308594 C 15.871094 31.308594 15.855469 31.207031 15.832031 31.023438 C 15.832031 30.976562 15.816406 30.929688 15.8125 30.863281 C 15.808594 30.792969 15.804688 30.714844 15.800781 30.632812 C 15.796875 30.546875 15.792969 30.457031 15.792969 30.363281 C 15.792969 30.269531 15.792969 30.175781 15.792969 30.074219 C 15.800781 29.582031 15.855469 29.09375 15.953125 28.609375 C 16.085938 27.972656 16.28125 27.355469 16.546875 26.761719 C 16.871094 26.050781 17.273438 25.390625 17.765625 24.785156 C 18.03125 24.453125 18.324219 24.136719 18.636719 23.847656 C 19.671875 22.875 20.863281 22.175781 22.214844 21.746094 L 22.5625 21.644531 C 22.679688 21.613281 22.800781 21.585938 22.917969 21.554688 C 23.035156 21.523438 23.15625 21.5 23.277344 21.476562 C 23.398438 21.457031 23.515625 21.429688 23.640625 21.414062 C 24.128906 21.339844 24.617188 21.300781 25.113281 21.292969 L 25.457031 21.304688 L 25.53125 21.304688 C 25.554688 21.304688 25.578125 21.304688 25.617188 21.304688 L 25.816406 21.320312 L 26.019531 21.335938 C 26.085938 21.335938 26.152344 21.347656 26.210938 21.355469 L 26.578125 21.402344 C 26.699219 21.421875 26.820312 21.445312 26.941406 21.46875 C 27.058594 21.488281 27.179688 21.515625 27.296875 21.542969 C 27.417969 21.574219 27.535156 21.601562 27.652344 21.636719 L 28.003906 21.734375 C 28.914062 22.027344 29.761719 22.449219 30.542969 23.003906 C 30.910156 23.257812 31.257812 23.539062 31.585938 23.851562 C 32.476562 24.683594 33.171875 25.652344 33.671875 26.761719 C 33.9375 27.355469 34.136719 27.972656 34.265625 28.609375 C 34.367188 29.09375 34.417969 29.582031 34.429688 30.074219 C 34.429688 30.175781 34.429688 30.277344 34.429688 30.363281 C 34.429688 30.449219 34.421875 30.539062 34.417969 30.617188 C 34.410156 30.773438 34.402344 30.90625 34.390625 31.011719 C 34.367188 31.226562 34.351562 31.339844 34.351562 31.339844 C 34.3125 31.625 34.183594 31.867188 33.96875 32.066406 C 33.753906 32.261719 33.503906 32.367188 33.210938 32.382812 C 32.921875 32.398438 32.660156 32.320312 32.425781 32.144531 C 32.195312 31.972656 32.042969 31.746094 31.972656 31.464844 L 31.941406 31.339844 C 31.941406 31.339844 31.921875 31.253906 31.890625 31.097656 C 31.875 31.023438 31.851562 30.925781 31.824219 30.816406 L 31.777344 30.636719 C 31.757812 30.574219 31.738281 30.507812 31.71875 30.4375 C 31.699219 30.363281 31.675781 30.292969 31.648438 30.21875 C 31.621094 30.144531 31.597656 30.066406 31.570312 29.984375 C 31.542969 29.902344 31.503906 29.820312 31.46875 29.734375 C 31.433594 29.648438 31.394531 29.5625 31.355469 29.472656 C 31.179688 29.074219 30.964844 28.695312 30.722656 28.335938 L 30.515625 28.042969 C 30.4375 27.949219 30.367188 27.847656 30.28125 27.753906 C 30.195312 27.660156 30.117188 27.5625 30.027344 27.46875 C 29.9375 27.378906 29.847656 27.285156 29.753906 27.191406 C 29.558594 27.003906 29.351562 26.832031 29.136719 26.667969 C 29.027344 26.585938 28.914062 26.511719 28.800781 26.429688 C 28.742188 26.390625 28.679688 26.355469 28.625 26.316406 C 28.566406 26.277344 28.503906 26.242188 28.441406 26.207031 C 28.195312 26.066406 27.941406 25.9375 27.679688 25.824219 L 27.476562 25.746094 L 27.277344 25.671875 C 27.207031 25.648438 27.140625 25.625 27.070312 25.605469 C 27 25.582031 26.933594 25.558594 26.859375 25.542969 C 26.578125 25.46875 26.289062 25.410156 26 25.367188 L 25.777344 25.339844 C 25.738281 25.335938 25.707031 25.335938 25.679688 25.332031 L 25.585938 25.328125 L 25.492188 25.320312 C 25.480469 25.320312 25.457031 25.320312 25.429688 25.320312 L 25.355469 25.320312 L 25.113281 25.3125 C 24.816406 25.3125 24.519531 25.332031 24.226562 25.371094 C 23.933594 25.410156 23.648438 25.46875 23.363281 25.546875 C 23.292969 25.5625 23.222656 25.585938 23.152344 25.609375 C 23.085938 25.628906 23.015625 25.648438 22.945312 25.675781 L 22.746094 25.746094 L 22.546875 25.828125 C 22.28125 25.941406 22.027344 26.066406 21.78125 26.210938 C 21.71875 26.242188 21.660156 26.28125 21.597656 26.320312 C 21.539062 26.359375 21.480469 26.390625 21.421875 26.429688 C 21.308594 26.511719 21.191406 26.585938 21.085938 26.671875 C 20.871094 26.835938 20.664062 27.007812 20.46875 27.195312 C 20.375 27.289062 20.28125 27.375 20.195312 27.472656 C 20.109375 27.570312 20.023438 27.664062 19.941406 27.757812 C 19.859375 27.851562 19.785156 27.953125 19.707031 28.046875 L 19.5 28.339844 C 19.253906 28.699219 19.042969 29.078125 18.867188 29.472656 C 18.828125 29.5625 18.785156 29.652344 18.753906 29.738281 C 18.71875 29.824219 18.6875 29.90625 18.652344 29.988281 C 18.617188 30.066406 18.601562 30.148438 18.574219 30.222656 C 18.546875 30.296875 18.523438 30.371094 18.503906 30.441406 C 18.484375 30.511719 18.464844 30.574219 18.445312 30.640625 C 18.425781 30.707031 18.414062 30.753906 18.402344 30.804688 L 18.363281 30.941406 C 18.351562 30.988281 18.34375 31.042969 18.335938 31.089844 C 18.300781 31.273438 18.28125 31.371094 18.28125 31.371094 C 18.226562 31.667969 18.082031 31.910156 17.847656 32.097656 C 17.617188 32.285156 17.351562 32.375 17.050781 32.367188 C 16.75 32.359375 16.488281 32.257812 16.265625 32.058594 C 16.042969 31.855469 15.910156 31.609375 15.871094 31.3125 Z M 15.871094 31.308594 " fill-opacity="1" fill-rule="nonzero"/><path fill="#231f20" d="M 55.648438 31.308594 C 55.648438 31.308594 55.632812 31.207031 55.609375 31.023438 C 55.601562 30.976562 55.59375 30.929688 55.589844 30.863281 C 55.585938 30.792969 55.585938 30.714844 55.578125 30.632812 C 55.574219 30.546875 55.570312 30.457031 55.570312 30.363281 C 55.570312 30.269531 55.570312 30.175781 55.570312 30.074219 C 55.578125 29.582031 55.632812 29.09375 55.734375 28.609375 C 55.863281 27.972656 56.058594 27.355469 56.324219 26.761719 C 56.828125 25.652344 57.523438 24.683594 58.414062 23.851562 C 58.738281 23.539062 59.085938 23.257812 59.457031 23.003906 C 60.238281 22.457031 61.082031 22.039062 61.992188 21.75 L 62.339844 21.648438 C 62.457031 21.617188 62.578125 21.589844 62.695312 21.558594 C 62.8125 21.527344 62.933594 21.503906 63.054688 21.480469 C 63.175781 21.460938 63.296875 21.433594 63.417969 21.417969 C 63.90625 21.34375 64.394531 21.300781 64.886719 21.292969 L 65.234375 21.304688 L 65.308594 21.304688 C 65.332031 21.304688 65.355469 21.304688 65.394531 21.304688 L 65.59375 21.320312 L 65.796875 21.335938 C 65.863281 21.335938 65.929688 21.347656 65.988281 21.355469 L 66.355469 21.402344 C 66.476562 21.421875 66.597656 21.445312 66.714844 21.46875 C 66.835938 21.488281 66.957031 21.515625 67.074219 21.542969 C 67.195312 21.574219 67.3125 21.601562 67.429688 21.636719 L 67.777344 21.734375 C 69.128906 22.164062 70.324219 22.863281 71.355469 23.835938 C 71.667969 24.128906 71.960938 24.441406 72.230469 24.773438 C 72.71875 25.382812 73.125 26.042969 73.445312 26.753906 C 73.710938 27.347656 73.90625 27.960938 74.039062 28.597656 C 74.136719 29.082031 74.191406 29.570312 74.199219 30.066406 C 74.199219 30.167969 74.199219 30.265625 74.199219 30.351562 C 74.199219 30.4375 74.191406 30.527344 74.191406 30.605469 C 74.183594 30.761719 74.175781 30.894531 74.160156 31.003906 C 74.136719 31.214844 74.125 31.328125 74.125 31.328125 C 74.082031 31.617188 73.957031 31.859375 73.742188 32.054688 C 73.527344 32.25 73.273438 32.355469 72.984375 32.371094 C 72.695312 32.386719 72.433594 32.308594 72.199219 32.136719 C 71.964844 31.964844 71.8125 31.734375 71.742188 31.453125 L 71.71875 31.339844 C 71.71875 31.339844 71.699219 31.253906 71.667969 31.097656 C 71.652344 31.023438 71.628906 30.925781 71.597656 30.816406 L 71.554688 30.636719 C 71.535156 30.574219 71.515625 30.507812 71.496094 30.4375 C 71.476562 30.363281 71.453125 30.292969 71.425781 30.21875 C 71.398438 30.144531 71.375 30.066406 71.347656 29.984375 C 71.316406 29.902344 71.28125 29.820312 71.246094 29.734375 C 71.210938 29.648438 71.171875 29.5625 71.132812 29.472656 C 70.957031 29.074219 70.746094 28.695312 70.5 28.335938 L 70.292969 28.042969 C 70.214844 27.949219 70.144531 27.847656 70.058594 27.753906 C 69.972656 27.660156 69.894531 27.5625 69.804688 27.46875 C 69.714844 27.378906 69.625 27.285156 69.53125 27.191406 C 69.335938 27.003906 69.128906 26.832031 68.914062 26.667969 C 68.808594 26.585938 68.691406 26.511719 68.578125 26.429688 C 68.519531 26.390625 68.460938 26.355469 68.402344 26.316406 C 68.34375 26.277344 68.28125 26.242188 68.21875 26.207031 C 67.972656 26.066406 67.71875 25.9375 67.453125 25.824219 L 67.253906 25.746094 L 67.054688 25.671875 C 66.984375 25.648438 66.914062 25.625 66.847656 25.605469 C 66.777344 25.582031 66.707031 25.558594 66.636719 25.542969 C 66.351562 25.46875 66.066406 25.410156 65.773438 25.367188 L 65.554688 25.339844 C 65.515625 25.335938 65.484375 25.335938 65.453125 25.332031 L 65.363281 25.328125 L 65.269531 25.320312 C 65.257812 25.320312 65.234375 25.320312 65.207031 25.320312 L 65.132812 25.320312 L 64.886719 25.3125 C 64.589844 25.3125 64.296875 25.332031 64 25.371094 C 63.710938 25.410156 63.421875 25.46875 63.140625 25.546875 C 63.066406 25.5625 63 25.585938 62.929688 25.609375 C 62.863281 25.628906 62.792969 25.648438 62.722656 25.675781 L 62.523438 25.746094 L 62.320312 25.828125 C 62.058594 25.941406 61.804688 26.066406 61.558594 26.210938 C 61.492188 26.242188 61.433594 26.277344 61.371094 26.316406 C 61.316406 26.355469 61.253906 26.390625 61.195312 26.429688 C 61.082031 26.511719 60.96875 26.585938 60.859375 26.671875 C 60.644531 26.832031 60.4375 27.007812 60.242188 27.191406 C 60.148438 27.285156 60.054688 27.375 59.96875 27.472656 C 59.882812 27.566406 59.796875 27.660156 59.714844 27.757812 C 59.632812 27.851562 59.558594 27.953125 59.480469 28.042969 L 59.273438 28.339844 C 59.027344 28.699219 58.816406 29.074219 58.640625 29.472656 C 58.601562 29.5625 58.558594 29.648438 58.527344 29.734375 C 58.492188 29.820312 58.460938 29.90625 58.425781 29.984375 C 58.390625 30.066406 58.371094 30.144531 58.34375 30.21875 C 58.320312 30.296875 58.296875 30.367188 58.277344 30.4375 C 58.257812 30.507812 58.238281 30.574219 58.21875 30.640625 C 58.199219 30.703125 58.1875 30.75 58.175781 30.800781 C 58.160156 30.851562 58.144531 30.902344 58.132812 30.941406 C 58.121094 30.980469 58.117188 31.039062 58.105469 31.089844 C 58.070312 31.273438 58.054688 31.371094 58.054688 31.371094 C 57.996094 31.664062 57.855469 31.90625 57.621094 32.09375 C 57.386719 32.285156 57.121094 32.375 56.820312 32.367188 C 56.523438 32.359375 56.261719 32.253906 56.039062 32.054688 C 55.816406 31.855469 55.683594 31.605469 55.640625 31.308594 Z M 55.648438 31.308594 " fill-opacity="1" fill-rule="nonzero"/><path fill="#231f20" d="M 69.710938 45 C 69.9375 45 70.164062 45.023438 70.386719 45.070312 C 70.609375 45.121094 70.824219 45.191406 71.03125 45.285156 C 71.238281 45.378906 71.433594 45.492188 71.617188 45.625 C 71.800781 45.761719 71.96875 45.914062 72.117188 46.085938 C 72.269531 46.253906 72.402344 46.441406 72.511719 46.636719 C 72.625 46.835938 72.714844 47.042969 72.78125 47.261719 C 72.847656 47.480469 72.890625 47.703125 72.914062 47.929688 C 72.933594 48.15625 72.929688 48.382812 72.902344 48.609375 C 71.125 62.4375 59.3125 73.125 45 73.125 C 30.6875 73.125 18.875 62.4375 17.105469 48.609375 C 17.074219 48.382812 17.074219 48.15625 17.09375 47.929688 C 17.113281 47.703125 17.15625 47.480469 17.222656 47.261719 C 17.292969 47.042969 17.382812 46.835938 17.492188 46.636719 C 17.605469 46.441406 17.734375 46.253906 17.886719 46.085938 C 18.039062 45.914062 18.203125 45.761719 18.386719 45.625 C 18.570312 45.492188 18.765625 45.378906 18.972656 45.285156 C 19.183594 45.191406 19.398438 45.121094 19.621094 45.070312 C 19.84375 45.023438 20.066406 45 20.296875 45 Z M 69.710938 45 " fill-opacity="1" fill-rule="nonzero"/><path fill="#ffffff" d="M 17.074219 45 L 72.925781 45 L 72.925781 53.035156 L 17.074219 53.035156 Z M 17.074219 45 " fill-opacity="1" fill-rule="nonzero"/><path fill="#2eb0da" d="M 17.074219 45 L 72.925781 45 L 72.925781 49.820312 L 17.074219 49.820312 Z M 17.074219 45 " fill-opacity="0.25" fill-rule="nonzero"/><path fill="#eb1024" d="M 58.058594 69.910156 C 57.15625 69.140625 56.191406 68.453125 55.167969 67.851562 C 54.144531 67.25 53.074219 66.742188 51.960938 66.332031 C 50.847656 65.921875 49.703125 65.609375 48.535156 65.402344 C 47.367188 65.191406 46.1875 65.089844 45 65.089844 C 43.8125 65.089844 42.632812 65.191406 41.464844 65.402344 C 40.296875 65.609375 39.152344 65.921875 38.039062 66.332031 C 36.925781 66.742188 35.855469 67.25 34.832031 67.851562 C 33.808594 68.453125 32.84375 69.140625 31.941406 69.910156 C 33.957031 70.964844 36.070312 71.761719 38.277344 72.304688 C 40.484375 72.847656 42.726562 73.121094 45 73.121094 C 47.273438 73.121094 49.515625 72.847656 51.722656 72.304688 C 53.929688 71.761719 56.042969 70.964844 58.058594 69.910156 Z M 58.058594 69.910156 " fill-opacity="1" fill-rule="nonzero"/><path fill="#231f20" d="M 45 75.132812 C 44.09375 75.132812 43.191406 75.09375 42.289062 75.011719 C 41.386719 74.929688 40.488281 74.808594 39.597656 74.644531 C 38.707031 74.484375 37.824219 74.28125 36.949219 74.039062 C 36.078125 73.796875 35.214844 73.515625 34.367188 73.195312 C 33.519531 72.875 32.6875 72.519531 31.875 72.125 C 31.058594 71.730469 30.261719 71.300781 29.484375 70.832031 C 28.707031 70.367188 27.953125 69.867188 27.222656 69.332031 C 26.492188 68.796875 25.785156 68.230469 25.105469 67.632812 C 24.421875 67.035156 23.773438 66.40625 23.148438 65.75 C 22.523438 65.09375 21.929688 64.410156 21.367188 63.699219 C 20.804688 62.988281 20.277344 62.253906 19.78125 61.496094 C 19.285156 60.738281 18.824219 59.957031 18.398438 59.15625 C 17.972656 58.359375 17.582031 57.539062 17.230469 56.707031 C 16.878906 55.871094 16.566406 55.023438 16.289062 54.160156 C 16.015625 53.296875 15.777344 52.421875 15.582031 51.539062 C 15.386719 50.652344 15.226562 49.761719 15.113281 48.863281 C 15.066406 48.496094 15.058594 48.128906 15.089844 47.757812 C 15.125 47.390625 15.195312 47.027344 15.304688 46.675781 C 15.414062 46.320312 15.558594 45.980469 15.738281 45.660156 C 15.921875 45.335938 16.132812 45.035156 16.378906 44.757812 C 16.625 44.480469 16.894531 44.230469 17.195312 44.011719 C 17.492188 43.792969 17.808594 43.605469 18.148438 43.453125 C 18.484375 43.300781 18.835938 43.1875 19.195312 43.109375 C 19.558594 43.03125 19.925781 42.992188 20.296875 42.992188 L 69.710938 42.992188 C 70.082031 42.992188 70.445312 43.03125 70.808594 43.109375 C 71.171875 43.1875 71.519531 43.300781 71.859375 43.453125 C 72.195312 43.605469 72.511719 43.792969 72.8125 44.011719 C 73.109375 44.230469 73.382812 44.480469 73.625 44.757812 C 73.871094 45.035156 74.085938 45.335938 74.265625 45.660156 C 74.445312 45.980469 74.59375 46.320312 74.699219 46.675781 C 74.808594 47.027344 74.882812 47.390625 74.914062 47.757812 C 74.945312 48.128906 74.9375 48.496094 74.894531 48.863281 C 74.777344 49.761719 74.621094 50.652344 74.421875 51.539062 C 74.226562 52.421875 73.992188 53.296875 73.714844 54.160156 C 73.4375 55.023438 73.125 55.871094 72.773438 56.707031 C 72.421875 57.542969 72.03125 58.359375 71.605469 59.160156 C 71.179688 59.960938 70.71875 60.738281 70.222656 61.496094 C 69.726562 62.253906 69.199219 62.988281 68.636719 63.699219 C 68.074219 64.410156 67.480469 65.09375 66.855469 65.75 C 66.230469 66.40625 65.578125 67.035156 64.898438 67.632812 C 64.21875 68.230469 63.511719 68.796875 62.78125 69.332031 C 62.046875 69.867188 61.292969 70.367188 60.515625 70.835938 C 59.742188 71.300781 58.945312 71.730469 58.128906 72.125 C 57.3125 72.519531 56.480469 72.878906 55.632812 73.195312 C 54.785156 73.515625 53.925781 73.796875 53.050781 74.039062 C 52.179688 74.28125 51.296875 74.484375 50.402344 74.644531 C 49.511719 74.808594 48.617188 74.929688 47.714844 75.011719 C 46.808594 75.09375 45.90625 75.132812 45 75.132812 Z M 20.296875 47.007812 C 19.929688 47.007812 19.625 47.144531 19.382812 47.421875 C 19.144531 47.6875 19.050781 48 19.097656 48.351562 C 19.195312 49.132812 19.332031 49.90625 19.5 50.671875 C 19.671875 51.4375 19.875 52.199219 20.113281 52.945312 C 20.351562 53.695312 20.625 54.429688 20.929688 55.15625 C 21.234375 55.878906 21.570312 56.589844 21.9375 57.28125 C 22.308594 57.976562 22.707031 58.652344 23.136719 59.308594 C 23.566406 59.96875 24.023438 60.605469 24.511719 61.21875 C 25 61.835938 25.511719 62.429688 26.054688 63 C 26.59375 63.570312 27.160156 64.113281 27.75 64.632812 C 28.339844 65.152344 28.953125 65.644531 29.585938 66.105469 C 30.21875 66.570312 30.875 67.003906 31.546875 67.410156 C 32.222656 67.8125 32.910156 68.1875 33.617188 68.53125 C 34.324219 68.871094 35.046875 69.183594 35.78125 69.460938 C 36.515625 69.738281 37.261719 69.980469 38.019531 70.191406 C 38.777344 70.402344 39.542969 70.574219 40.316406 70.71875 C 41.085938 70.859375 41.867188 70.964844 42.648438 71.035156 C 43.429688 71.105469 44.214844 71.140625 45 71.140625 C 45.785156 71.140625 46.570312 71.105469 47.351562 71.035156 C 48.132812 70.964844 48.914062 70.859375 49.683594 70.71875 C 50.457031 70.574219 51.222656 70.402344 51.980469 70.191406 C 52.738281 69.980469 53.484375 69.738281 54.21875 69.460938 C 54.953125 69.183594 55.675781 68.871094 56.382812 68.53125 C 57.089844 68.1875 57.777344 67.8125 58.453125 67.410156 C 59.125 67.003906 59.78125 66.570312 60.414062 66.105469 C 61.046875 65.644531 61.660156 65.152344 62.25 64.632812 C 62.839844 64.113281 63.40625 63.570312 63.945312 63 C 64.488281 62.429688 65 61.835938 65.488281 61.21875 C 65.976562 60.605469 66.433594 59.96875 66.863281 59.308594 C 67.292969 58.652344 67.691406 57.976562 68.0625 57.28125 C 68.429688 56.589844 68.765625 55.878906 69.070312 55.15625 C 69.375 54.429688 69.648438 53.695312 69.886719 52.945312 C 70.125 52.199219 70.328125 51.4375 70.5 50.671875 C 70.667969 49.90625 70.804688 49.132812 70.902344 48.351562 C 70.949219 47.996094 70.851562 47.6875 70.613281 47.421875 C 70.375 47.148438 70.074219 47.011719 69.710938 47.007812 Z M 20.296875 47.007812 " fill-opacity="1" fill-rule="nonzero"/></svg>