<svg xmlns="http://www.w3.org/2000/svg" xmlns:xlink="http://www.w3.org/1999/xlink" width="120" zoomAndPan="magnify" viewBox="0 0 90 89.999999" height="120" preserveAspectRatio="xMidYMid meet" version="1.0"><path fill="#ffdc00" d="M 90 45 C 90 69.851562 69.851562 90 45 90 C 20.148438 90 0 69.851562 0 45 C 0 20.148438 20.148438 0 45 0 C 69.851562 0 90 20.148438 90 45 Z M 90 45 " fill-opacity="1" fill-rule="nonzero"/><path fill="#ffc000" d="M 90 45 C 90 43.808594 89.953125 42.628906 89.863281 41.464844 L 66.632812 17.886719 L 49.324219 22.457031 L 49.324219 37.558594 L 33.925781 37.441406 L 21.972656 53.496094 L 32.167969 63.691406 L 22.808594 71.078125 L 41.605469 89.871094 C 42.726562 89.957031 43.859375 90 45 90 C 69.851562 90 90 69.851562 90 45 Z M 90 45 " fill-opacity="1" fill-rule="nonzero"/><path fill="#ff6838" d="M 22.808594 71.078125 L 35.289062 71.078125 L 35.289062 56.839844 L 22.808594 56.839844 Z M 22.808594 71.078125 " fill-opacity="1" fill-rule="nonzero"/><path fill="#ff6838" d="M 38.757812 71.078125 L 51.238281 71.078125 L 51.238281 49.105469 L 38.757812 49.105469 Z M 38.757812 71.078125 " fill-opacity="1" fill-rule="nonzero"/><path fill="#ae4e32" d="M 45 71.078125 L 51.238281 71.078125 L 51.238281 49.105469 L 45 49.105469 Z M 45 71.078125 " fill-opacity="1" fill-rule="nonzero"/><path fill="#ae4e32" d="M 54.710938 71.078125 L 67.191406 71.078125 L 67.191406 39.613281 L 54.710938 39.613281 Z M 54.710938 71.078125 " fill-opacity="1" fill-rule="nonzero"/><path fill="#0074a3" d="M 22.007812 53.539062 L 18.773438 50.308594 L 37.972656 31.109375 L 44.074219 37.210938 L 62.730469 18.554688 L 65.960938 21.785156 L 44.074219 43.671875 L 37.972656 37.570312 Z M 22.007812 53.539062 " fill-opacity="1" fill-rule="nonzero"/><path fill="#005c83" d="M 49.324219 17.886719 L 49.324219 22.457031 L 58.828125 22.457031 L 44.074219 37.210938 L 44.074219 43.671875 L 62.0625 25.6875 L 62.0625 35.195312 L 66.632812 35.195312 L 66.632812 17.886719 Z M 49.324219 17.886719 " fill-opacity="1" fill-rule="nonzero"/></svg>