<svg xmlns="http://www.w3.org/2000/svg" xmlns:xlink="http://www.w3.org/1999/xlink" width="120" zoomAndPan="magnify" viewBox="0 0 90 89.999999" height="120" preserveAspectRatio="xMidYMid meet" version="1.0"><defs><clipPath id="efea130e5a"><path d="M 43 1.425781 L 84 1.425781 L 84 33 L 43 33 Z M 43 1.425781 " clip-rule="nonzero"/></clipPath><clipPath id="c1baea1e53"><path d="M 1.199219 72 L 88.949219 72 L 88.949219 89.175781 L 1.199219 89.175781 Z M 1.199219 72 " clip-rule="nonzero"/></clipPath><clipPath id="46d9858eac"><path d="M 1.199219 38 L 88.949219 38 L 88.949219 73 L 1.199219 73 Z M 1.199219 38 " clip-rule="nonzero"/></clipPath><clipPath id="6bcfc5a0ea"><path d="M 1.199219 72 L 88.949219 72 L 88.949219 89.175781 L 1.199219 89.175781 Z M 1.199219 72 " clip-rule="nonzero"/></clipPath><clipPath id="931e8c9a8c"><path d="M 1.199219 38 L 40 38 L 40 73 L 1.199219 73 Z M 1.199219 38 " clip-rule="nonzero"/></clipPath></defs><path fill="#a8b7d4" d="M 9.691406 48.128906 L 40.828125 48.128906 L 40.828125 52.375 L 9.691406 52.375 Z M 9.691406 48.128906 " fill-opacity="1" fill-rule="nonzero"/><path fill="#5c6979" d="M 9.691406 43.882812 L 13.9375 43.882812 L 13.9375 48.128906 L 9.691406 48.128906 Z M 9.691406 43.882812 " fill-opacity="1" fill-rule="nonzero"/><path fill="#5c6979" d="M 36.582031 43.882812 L 40.828125 43.882812 L 40.828125 48.128906 L 36.582031 48.128906 Z M 36.582031 43.882812 " fill-opacity="1" fill-rule="nonzero"/><path fill="#edf4fa" d="M 56.398438 59.453125 L 56.398438 65.113281 L 47.90625 65.113281 L 48.371094 59.453125 Z M 56.398438 59.453125 " fill-opacity="1" fill-rule="nonzero"/><path fill="#edf4fa" d="M 56.398438 59.453125 L 63.472656 59.453125 L 63.472656 65.113281 L 56.398438 65.113281 Z M 56.398438 59.453125 " fill-opacity="1" fill-rule="nonzero"/><path fill="#edf4fa" d="M 63.472656 59.453125 L 70.550781 59.453125 L 70.550781 65.113281 L 63.472656 65.113281 Z M 63.472656 59.453125 " fill-opacity="1" fill-rule="nonzero"/><path fill="#edf4fa" d="M 78.574219 59.453125 L 79.042969 65.113281 L 70.550781 65.113281 L 70.550781 59.453125 Z M 78.574219 59.453125 " fill-opacity="1" fill-rule="nonzero"/><path fill="#edf4fa" d="M 78.09375 53.792969 L 78.574219 59.453125 L 70.550781 59.453125 L 70.550781 53.792969 Z M 78.09375 53.792969 " fill-opacity="1" fill-rule="nonzero"/><path fill="#edf4fa" d="M 63.472656 53.792969 L 70.550781 53.792969 L 70.550781 59.453125 L 63.472656 59.453125 Z M 63.472656 53.792969 " fill-opacity="1" fill-rule="nonzero"/><path fill="#edf4fa" d="M 56.398438 53.792969 L 63.472656 53.792969 L 63.472656 59.453125 L 56.398438 59.453125 Z M 56.398438 53.792969 " fill-opacity="1" fill-rule="nonzero"/><path fill="#edf4fa" d="M 56.398438 53.792969 L 56.398438 59.453125 L 48.371094 59.453125 L 48.855469 53.792969 Z M 56.398438 53.792969 " fill-opacity="1" fill-rule="nonzero"/><path fill="#edf4fa" d="M 56.398438 48.128906 L 56.398438 53.792969 L 48.855469 53.792969 L 49.320312 48.128906 Z M 56.398438 48.128906 " fill-opacity="1" fill-rule="nonzero"/><path fill="#edf4fa" d="M 56.398438 48.128906 L 63.472656 48.128906 L 63.472656 53.792969 L 56.398438 53.792969 Z M 56.398438 48.128906 " fill-opacity="1" fill-rule="nonzero"/><path fill="#edf4fa" d="M 63.472656 48.128906 L 70.550781 48.128906 L 70.550781 53.792969 L 63.472656 53.792969 Z M 63.472656 48.128906 " fill-opacity="1" fill-rule="nonzero"/><path fill="#edf4fa" d="M 77.628906 48.128906 L 78.09375 53.792969 L 70.550781 53.792969 L 70.550781 48.128906 Z M 77.628906 48.128906 " fill-opacity="1" fill-rule="nonzero"/><path fill="#bd6f08" d="M 69.136719 38.222656 L 69.136719 41.054688 L 57.8125 41.054688 L 57.8125 32.5625 L 69.136719 32.5625 Z M 69.136719 38.222656 " fill-opacity="1" fill-rule="nonzero"/><g clip-path="url(#efea130e5a)"><path fill="#ffad39" d="M 47.90625 28.316406 L 79.042969 28.316406 L 79.042969 5.671875 L 47.90625 5.671875 Z M 83.289062 4.253906 L 83.289062 29.730469 C 83.289062 30.105469 83.214844 30.46875 83.070312 30.8125 C 82.925781 31.160156 82.722656 31.464844 82.457031 31.730469 C 82.191406 31.996094 81.886719 32.199219 81.539062 32.34375 C 81.195312 32.488281 80.832031 32.5625 80.457031 32.5625 L 46.492188 32.5625 C 46.117188 32.5625 45.753906 32.488281 45.410156 32.34375 C 45.0625 32.199219 44.757812 31.996094 44.492188 31.730469 C 44.226562 31.464844 44.019531 31.160156 43.878906 30.8125 C 43.734375 30.46875 43.660156 30.105469 43.660156 29.730469 L 43.660156 4.253906 C 43.660156 3.878906 43.734375 3.519531 43.878906 3.171875 C 44.019531 2.828125 44.226562 2.523438 44.492188 2.257812 C 44.757812 1.992188 45.0625 1.785156 45.410156 1.644531 C 45.753906 1.5 46.117188 1.425781 46.492188 1.425781 L 80.457031 1.425781 C 80.832031 1.425781 81.195312 1.5 81.539062 1.644531 C 81.886719 1.785156 82.191406 1.992188 82.457031 2.257812 C 82.722656 2.523438 82.925781 2.828125 83.070312 3.171875 C 83.214844 3.519531 83.289062 3.878906 83.289062 4.253906 Z M 83.289062 4.253906 " fill-opacity="1" fill-rule="nonzero"/></g><path fill="#edf4fa" d="M 47.90625 5.671875 L 79.042969 5.671875 L 79.042969 28.316406 L 47.90625 28.316406 Z M 47.90625 5.671875 " fill-opacity="1" fill-rule="nonzero"/><path fill="#e03e3e" d="M 26.675781 77.851562 L 63.472656 77.851562 L 63.472656 83.515625 L 26.675781 83.515625 Z M 26.675781 77.851562 " fill-opacity="1" fill-rule="nonzero"/><g clip-path="url(#c1baea1e53)"><path fill="#fc9e20" d="M 88.949219 72.714844 L 88.949219 83.515625 C 88.949219 83.886719 88.914062 84.253906 88.839844 84.617188 C 88.769531 84.984375 88.660156 85.335938 88.519531 85.679688 C 88.375 86.023438 88.203125 86.351562 87.996094 86.660156 C 87.789062 86.96875 87.554688 87.253906 87.292969 87.515625 C 87.027344 87.78125 86.742188 88.015625 86.433594 88.222656 C 86.125 88.425781 85.796875 88.601562 85.457031 88.742188 C 85.113281 88.886719 84.757812 88.992188 84.394531 89.066406 C 84.027344 89.140625 83.660156 89.175781 83.289062 89.175781 L 6.859375 89.175781 C 6.488281 89.175781 6.121094 89.140625 5.757812 89.066406 C 5.390625 88.992188 5.039062 88.886719 4.695312 88.742188 C 4.351562 88.601562 4.023438 88.425781 3.714844 88.222656 C 3.40625 88.015625 3.121094 87.78125 2.859375 87.515625 C 2.59375 87.253906 2.359375 86.96875 2.152344 86.660156 C 1.949219 86.351562 1.773438 86.023438 1.632812 85.679688 C 1.488281 85.335938 1.382812 84.984375 1.308594 84.617188 C 1.234375 84.253906 1.199219 83.886719 1.199219 83.515625 L 1.199219 72.714844 C 1.199219 72.53125 1.199219 72.359375 1.214844 72.191406 L 88.9375 72.191406 C 88.949219 72.359375 88.949219 72.53125 88.949219 72.714844 Z M 63.472656 83.515625 L 63.472656 77.851562 L 26.675781 77.851562 L 26.675781 83.515625 Z M 63.472656 83.515625 " fill-opacity="1" fill-rule="nonzero"/></g><g clip-path="url(#46d9858eac)"><path fill="#febd55" d="M 78.574219 59.453125 L 78.09375 53.792969 L 77.628906 48.128906 L 49.320312 48.128906 L 48.855469 53.792969 L 48.371094 59.453125 L 47.90625 65.113281 L 79.042969 65.113281 Z M 88.878906 71.667969 C 88.894531 71.851562 88.921875 72.019531 88.9375 72.191406 L 1.214844 72.191406 C 1.226562 72.019531 1.257812 71.851562 1.269531 71.667969 L 5.132812 40.699219 C 5.179688 40.359375 5.28125 40.035156 5.445312 39.730469 C 5.605469 39.425781 5.816406 39.160156 6.074219 38.929688 C 6.335938 38.703125 6.625 38.527344 6.949219 38.40625 C 7.273438 38.285156 7.605469 38.222656 7.949219 38.222656 L 13.9375 38.222656 L 13.9375 43.882812 L 9.691406 43.882812 L 9.691406 52.375 L 40.828125 52.375 L 40.828125 43.882812 L 36.582031 43.882812 L 36.582031 38.222656 L 57.8125 38.222656 L 57.8125 41.054688 L 69.136719 41.054688 L 69.136719 38.222656 L 82.199219 38.222656 C 82.542969 38.222656 82.878906 38.285156 83.199219 38.40625 C 83.523438 38.527344 83.816406 38.703125 84.074219 38.929688 C 84.332031 39.160156 84.542969 39.425781 84.707031 39.730469 C 84.867188 40.035156 84.972656 40.359375 85.015625 40.699219 Z M 88.878906 71.667969 " fill-opacity="1" fill-rule="nonzero"/></g><path fill="#e68c15" d="M 46.492188 29.730469 L 80.457031 29.730469 L 80.457031 4.253906 L 46.492188 4.253906 Z M 47.90625 5.671875 L 79.042969 5.671875 L 79.042969 28.316406 L 47.90625 28.316406 Z M 47.90625 5.671875 " fill-opacity="1" fill-rule="nonzero"/><path fill="#c1cfe8" d="M 63.472656 24.070312 C 62.730469 24.070312 61.996094 23.996094 61.265625 23.851562 C 60.535156 23.707031 59.828125 23.492188 59.140625 23.207031 C 58.453125 22.921875 57.800781 22.574219 57.183594 22.160156 C 56.566406 21.75 55.992188 21.28125 55.46875 20.753906 C 54.941406 20.226562 54.472656 19.65625 54.058594 19.039062 C 53.648438 18.417969 53.296875 17.765625 53.011719 17.082031 C 52.730469 16.394531 52.515625 15.6875 52.371094 14.957031 C 52.222656 14.226562 52.152344 13.492188 52.152344 12.746094 L 52.152344 5.671875 L 47.90625 5.671875 L 47.90625 28.316406 L 79.042969 28.316406 L 79.042969 24.070312 Z M 63.472656 24.070312 " fill-opacity="1" fill-rule="nonzero"/><path fill="#a8b7d4" d="M 52.152344 9.917969 L 54.980469 9.917969 L 54.980469 12.746094 L 52.152344 12.746094 Z M 52.152344 9.917969 " fill-opacity="1" fill-rule="nonzero"/><path fill="#a8b7d4" d="M 57.8125 9.917969 L 60.644531 9.917969 L 60.644531 12.746094 L 57.8125 12.746094 Z M 57.8125 9.917969 " fill-opacity="1" fill-rule="nonzero"/><path fill="#a8b7d4" d="M 52.152344 14.164062 L 54.980469 14.164062 L 54.980469 16.992188 L 52.152344 16.992188 Z M 52.152344 14.164062 " fill-opacity="1" fill-rule="nonzero"/><path fill="#a8b7d4" d="M 57.8125 14.164062 L 60.644531 14.164062 L 60.644531 16.992188 L 57.8125 16.992188 Z M 57.8125 14.164062 " fill-opacity="1" fill-rule="nonzero"/><path fill="#9e5d07" d="M 63.472656 35.394531 L 69.136719 35.394531 L 69.136719 32.5625 L 57.8125 32.5625 L 57.8125 41.054688 L 60.644531 41.054688 L 60.644531 38.222656 C 60.644531 37.847656 60.714844 37.488281 60.859375 37.140625 C 61.003906 36.792969 61.207031 36.488281 61.472656 36.222656 C 61.738281 35.957031 62.042969 35.75 62.390625 35.609375 C 62.738281 35.464844 63.097656 35.394531 63.472656 35.394531 Z M 63.472656 35.394531 " fill-opacity="1" fill-rule="nonzero"/><g clip-path="url(#6bcfc5a0ea)"><path fill="#e68c15" d="M 86.121094 83.515625 L 16.769531 83.515625 C 16.398438 83.515625 16.027344 83.476562 15.664062 83.40625 C 15.300781 83.332031 14.945312 83.226562 14.601562 83.082031 C 14.257812 82.941406 13.933594 82.765625 13.625 82.558594 C 13.3125 82.351562 13.027344 82.117188 12.765625 81.855469 C 12.503906 81.59375 12.269531 81.308594 12.0625 80.996094 C 11.855469 80.6875 11.679688 80.363281 11.539062 80.019531 C 11.394531 79.675781 11.289062 79.320312 11.214844 78.957031 C 11.144531 78.59375 11.105469 78.222656 11.105469 77.851562 L 11.105469 72.191406 L 1.214844 72.191406 C 1.199219 72.359375 1.199219 72.53125 1.199219 72.714844 L 1.199219 83.515625 C 1.199219 83.886719 1.234375 84.253906 1.308594 84.617188 C 1.382812 84.984375 1.488281 85.335938 1.632812 85.679688 C 1.773438 86.023438 1.949219 86.351562 2.152344 86.660156 C 2.359375 86.96875 2.59375 87.253906 2.859375 87.515625 C 3.121094 87.78125 3.40625 88.015625 3.714844 88.222656 C 4.023438 88.425781 4.351562 88.601562 4.695312 88.742188 C 5.039062 88.886719 5.390625 88.992188 5.757812 89.066406 C 6.121094 89.140625 6.488281 89.175781 6.859375 89.175781 L 83.289062 89.175781 C 83.660156 89.175781 84.027344 89.140625 84.394531 89.066406 C 84.757812 88.992188 85.113281 88.886719 85.457031 88.742188 C 85.796875 88.601562 86.125 88.425781 86.433594 88.222656 C 86.742188 88.015625 87.027344 87.78125 87.292969 87.515625 C 87.554688 87.253906 87.789062 86.96875 87.996094 86.660156 C 88.203125 86.351562 88.375 86.023438 88.519531 85.679688 C 88.660156 85.335938 88.769531 84.984375 88.839844 84.617188 C 88.914062 84.253906 88.949219 83.886719 88.949219 83.515625 L 88.949219 80.683594 C 88.949219 81.058594 88.878906 81.417969 88.734375 81.765625 C 88.589844 82.113281 88.386719 82.417969 88.121094 82.683594 C 87.855469 82.949219 87.550781 83.15625 87.203125 83.296875 C 86.855469 83.441406 86.496094 83.515625 86.121094 83.515625 Z M 86.121094 83.515625 " fill-opacity="1" fill-rule="nonzero"/></g><g clip-path="url(#931e8c9a8c)"><path fill="#fc9e20" d="M 12.089844 60.398438 C 12.117188 60.046875 12.179688 59.703125 12.273438 59.363281 C 12.367188 59.023438 12.492188 58.695312 12.644531 58.378906 C 12.800781 58.0625 12.984375 57.765625 13.195312 57.484375 C 13.40625 57.199219 13.640625 56.941406 13.898438 56.703125 C 14.15625 56.464844 14.4375 56.25 14.734375 56.066406 C 15.035156 55.878906 15.347656 55.722656 15.675781 55.59375 C 16.003906 55.464844 16.339844 55.371094 16.683594 55.304688 C 17.03125 55.238281 17.378906 55.207031 17.730469 55.207031 L 38 55.207031 C 38.1875 55.207031 38.367188 55.171875 38.539062 55.097656 C 38.714844 55.027344 38.867188 54.925781 39 54.792969 C 39.132812 54.660156 39.234375 54.507812 39.304688 54.332031 C 39.378906 54.160156 39.414062 53.980469 39.414062 53.792969 L 39.414062 52.375 L 9.691406 52.375 L 9.691406 43.882812 L 13.9375 43.882812 L 13.9375 38.222656 L 7.949219 38.222656 C 7.605469 38.222656 7.273438 38.285156 6.949219 38.40625 C 6.625 38.527344 6.335938 38.703125 6.074219 38.929688 C 5.816406 39.160156 5.605469 39.425781 5.445312 39.730469 C 5.28125 40.035156 5.179688 40.359375 5.132812 40.699219 L 1.269531 71.667969 C 1.257812 71.851562 1.226562 72.019531 1.214844 72.191406 L 11.105469 72.191406 Z M 12.089844 60.398438 " fill-opacity="1" fill-rule="nonzero"/></g><path fill="#fc9e20" d="M 57.8125 38.222656 L 57.8125 41.054688 L 69.136719 41.054688 L 67.132812 43.054688 C 66.582031 43.609375 65.914062 43.882812 65.132812 43.882812 L 47.199219 43.882812 C 46.917969 43.882812 46.644531 43.832031 46.386719 43.722656 C 46.125 43.617188 45.894531 43.460938 45.695312 43.261719 C 45.496094 43.0625 45.34375 42.835938 45.238281 42.574219 C 45.128906 42.3125 45.074219 42.042969 45.074219 41.761719 C 45.074219 41.480469 45.128906 41.210938 45.238281 40.949219 C 45.34375 40.6875 45.496094 40.460938 45.695312 40.261719 C 45.894531 40.0625 46.125 39.90625 46.386719 39.800781 C 46.644531 39.691406 46.917969 39.640625 47.199219 39.640625 L 53.566406 39.640625 L 53.566406 38.222656 Z M 57.8125 38.222656 " fill-opacity="1" fill-rule="nonzero"/><path fill="#a81e29" d="M 26.675781 77.851562 L 26.675781 83.515625 L 30.921875 83.515625 L 30.921875 82.097656 C 30.921875 81.910156 30.957031 81.730469 31.03125 81.558594 C 31.101562 81.382812 31.203125 81.230469 31.335938 81.097656 C 31.46875 80.964844 31.621094 80.863281 31.796875 80.789062 C 31.96875 80.71875 32.148438 80.683594 32.335938 80.683594 L 57.8125 80.683594 C 58 80.683594 58.179688 80.71875 58.355469 80.789062 C 58.527344 80.863281 58.679688 80.964844 58.8125 81.097656 C 58.945312 81.230469 59.046875 81.382812 59.121094 81.558594 C 59.191406 81.730469 59.226562 81.910156 59.226562 82.097656 L 59.226562 83.515625 L 63.472656 83.515625 L 63.472656 77.851562 Z M 26.675781 77.851562 " fill-opacity="1" fill-rule="nonzero"/><path fill="#393d48" d="M 13.9375 43.882812 L 13.9375 48.128906 L 9.691406 48.128906 L 9.691406 46.714844 L 11.105469 46.714844 C 11.296875 46.714844 11.476562 46.679688 11.648438 46.609375 C 11.824219 46.535156 11.976562 46.433594 12.109375 46.300781 C 12.242188 46.167969 12.34375 46.015625 12.414062 45.839844 C 12.488281 45.667969 12.523438 45.488281 12.523438 45.300781 L 12.523438 43.882812 Z M 13.9375 43.882812 " fill-opacity="1" fill-rule="nonzero"/><path fill="#393d48" d="M 36.582031 43.882812 L 36.582031 48.128906 L 40.828125 48.128906 L 40.828125 46.714844 L 39.414062 46.714844 C 39.226562 46.714844 39.046875 46.679688 38.871094 46.609375 C 38.699219 46.535156 38.546875 46.433594 38.414062 46.300781 C 38.28125 46.167969 38.179688 46.015625 38.105469 45.839844 C 38.035156 45.667969 38 45.488281 38 45.300781 L 38 43.882812 Z M 36.582031 43.882812 " fill-opacity="1" fill-rule="nonzero"/><path fill="#8394b2" d="M 9.691406 48.128906 L 9.691406 52.375 L 40.828125 52.375 L 40.828125 48.128906 L 39.414062 48.128906 C 39.414062 48.507812 39.34375 48.867188 39.199219 49.214844 C 39.054688 49.5625 38.851562 49.867188 38.585938 50.132812 C 38.320312 50.398438 38.011719 50.601562 37.667969 50.746094 C 37.320312 50.890625 36.957031 50.960938 36.582031 50.960938 L 13.9375 50.960938 C 13.5625 50.960938 13.203125 50.890625 12.855469 50.746094 C 12.507812 50.601562 12.203125 50.398438 11.9375 50.132812 C 11.671875 49.867188 11.464844 49.5625 11.324219 49.214844 C 11.179688 48.867188 11.105469 48.507812 11.105469 48.128906 Z M 9.691406 48.128906 " fill-opacity="1" fill-rule="nonzero"/><path fill="#edf4fa" d="M 36.582031 38.222656 L 36.582031 48.128906 L 13.9375 48.128906 L 13.9375 19.824219 L 16.769531 22.65625 L 19.597656 19.824219 L 22.429688 22.65625 L 25.261719 19.824219 L 28.089844 22.65625 L 30.921875 19.824219 L 33.753906 22.65625 L 36.582031 19.824219 Z M 36.582031 38.222656 " fill-opacity="1" fill-rule="nonzero"/><path fill="#a8b7d4" d="M 18.183594 25.484375 L 21.015625 25.484375 L 21.015625 28.316406 L 18.183594 28.316406 Z M 18.183594 25.484375 " fill-opacity="1" fill-rule="nonzero"/><path fill="#a8b7d4" d="M 23.84375 25.484375 L 26.675781 25.484375 L 26.675781 28.316406 L 23.84375 28.316406 Z M 23.84375 25.484375 " fill-opacity="1" fill-rule="nonzero"/><path fill="#a8b7d4" d="M 18.183594 29.730469 L 21.015625 29.730469 L 21.015625 32.5625 L 18.183594 32.5625 Z M 18.183594 29.730469 " fill-opacity="1" fill-rule="nonzero"/><path fill="#a8b7d4" d="M 23.84375 29.730469 L 26.675781 29.730469 L 26.675781 32.5625 L 23.84375 32.5625 Z M 23.84375 29.730469 " fill-opacity="1" fill-rule="nonzero"/><path fill="#a8b7d4" d="M 18.183594 35.394531 L 32.335938 35.394531 L 32.335938 38.222656 L 18.183594 38.222656 Z M 18.183594 35.394531 " fill-opacity="1" fill-rule="nonzero"/><path fill="#a8b7d4" d="M 18.183594 41.054688 L 32.335938 41.054688 L 32.335938 43.882812 L 18.183594 43.882812 Z M 18.183594 41.054688 " fill-opacity="1" fill-rule="nonzero"/><path fill="#d6e0eb" d="M 13.9375 45.300781 L 36.582031 45.300781 L 36.582031 48.128906 L 13.9375 48.128906 Z M 13.9375 45.300781 " fill-opacity="1" fill-rule="nonzero"/><path fill="#c1cfe8" d="M 64.890625 48.128906 L 64.890625 52.375 L 70.550781 52.375 L 70.550781 53.792969 L 63.472656 53.792969 L 63.472656 48.128906 Z M 64.890625 48.128906 " fill-opacity="1" fill-rule="nonzero"/><path fill="#c1cfe8" d="M 57.8125 48.128906 L 57.8125 52.375 L 63.472656 52.375 L 63.472656 53.792969 L 56.398438 53.792969 L 56.398438 48.128906 Z M 57.8125 48.128906 " fill-opacity="1" fill-rule="nonzero"/><path fill="#c1cfe8" d="M 64.890625 53.792969 L 64.890625 58.039062 L 70.550781 58.039062 L 70.550781 59.453125 L 63.472656 59.453125 L 63.472656 53.792969 Z M 64.890625 53.792969 " fill-opacity="1" fill-rule="nonzero"/><path fill="#c1cfe8" d="M 64.890625 59.453125 L 64.890625 63.699219 L 70.550781 63.699219 L 70.550781 65.113281 L 63.472656 65.113281 L 63.472656 59.453125 Z M 64.890625 59.453125 " fill-opacity="1" fill-rule="nonzero"/><path fill="#c1cfe8" d="M 57.8125 53.792969 L 57.8125 58.039062 L 63.472656 58.039062 L 63.472656 59.453125 L 56.398438 59.453125 L 56.398438 53.792969 Z M 57.8125 53.792969 " fill-opacity="1" fill-rule="nonzero"/><path fill="#c1cfe8" d="M 57.8125 59.453125 L 57.8125 63.699219 L 63.472656 63.699219 L 63.472656 65.113281 L 56.398438 65.113281 L 56.398438 59.453125 Z M 57.8125 59.453125 " fill-opacity="1" fill-rule="nonzero"/><path fill="#c1cfe8" d="M 49.625 63.699219 L 49.929688 59.453125 L 48.371094 59.453125 L 48.023438 63.699219 L 47.90625 65.113281 L 56.398438 65.113281 L 56.398438 63.699219 Z M 49.625 63.699219 " fill-opacity="1" fill-rule="nonzero"/><path fill="#c1cfe8" d="M 50.027344 58.039062 L 50.332031 53.792969 L 48.855469 53.792969 L 48.492188 58.039062 L 48.371094 59.453125 L 56.398438 59.453125 L 56.398438 58.039062 Z M 50.027344 58.039062 " fill-opacity="1" fill-rule="nonzero"/><path fill="#c1cfe8" d="M 50.433594 52.375 L 50.734375 48.128906 L 49.320312 48.128906 L 48.972656 52.375 L 48.855469 53.792969 L 56.398438 53.792969 L 56.398438 52.375 Z M 50.433594 52.375 " fill-opacity="1" fill-rule="nonzero"/><path fill="#c1cfe8" d="M 71.964844 59.453125 L 70.550781 59.453125 L 70.550781 65.113281 L 79.042969 65.113281 L 78.925781 63.699219 L 71.964844 63.699219 Z M 71.964844 59.453125 " fill-opacity="1" fill-rule="nonzero"/><path fill="#c1cfe8" d="M 71.964844 53.792969 L 70.550781 53.792969 L 70.550781 59.453125 L 78.574219 59.453125 L 78.457031 58.039062 L 71.964844 58.039062 Z M 71.964844 53.792969 " fill-opacity="1" fill-rule="nonzero"/><path fill="#c1cfe8" d="M 71.964844 53.792969 L 78.09375 53.792969 L 77.976562 52.375 L 71.964844 52.375 L 71.964844 48.128906 L 70.550781 48.128906 L 70.550781 53.792969 Z M 71.964844 53.792969 " fill-opacity="1" fill-rule="nonzero"/><path fill="#e68c15" d="M 79.988281 59.335938 L 79.039062 48.015625 C 79.023438 47.835938 78.980469 47.667969 78.902344 47.507812 C 78.824219 47.347656 78.71875 47.210938 78.585938 47.089844 C 78.457031 46.96875 78.308594 46.875 78.144531 46.8125 C 77.976562 46.746094 77.804688 46.714844 77.628906 46.714844 L 49.320312 46.714844 C 49.144531 46.714844 48.972656 46.746094 48.804688 46.8125 C 48.640625 46.875 48.492188 46.96875 48.359375 47.089844 C 48.226562 47.207031 48.125 47.347656 48.046875 47.507812 C 47.964844 47.667969 47.921875 47.835938 47.90625 48.015625 L 46.492188 65 C 46.472656 65.195312 46.5 65.386719 46.5625 65.574219 C 46.628906 65.761719 46.726562 65.929688 46.863281 66.074219 C 46.996094 66.21875 47.152344 66.332031 47.335938 66.414062 C 47.515625 66.492188 47.707031 66.53125 47.90625 66.53125 L 79.042969 66.53125 C 79.242188 66.53125 79.429688 66.492188 79.613281 66.414062 C 79.792969 66.332031 79.953125 66.21875 80.085938 66.074219 C 80.222656 65.929688 80.320312 65.761719 80.386719 65.574219 C 80.449219 65.386719 80.472656 65.195312 80.457031 65 Z M 70.550781 65.113281 L 47.90625 65.113281 L 48.371094 59.453125 L 48.855469 53.792969 L 49.320312 48.128906 L 77.628906 48.128906 L 78.09375 53.792969 L 78.574219 59.453125 L 79.042969 65.113281 Z M 70.550781 65.113281 " fill-opacity="1" fill-rule="nonzero"/><path fill="#9e5d07" d="M 63.472656 76.4375 L 26.675781 76.4375 C 26.488281 76.4375 26.308594 76.472656 26.132812 76.542969 C 25.960938 76.617188 25.808594 76.71875 25.675781 76.851562 C 25.542969 76.984375 25.441406 77.136719 25.367188 77.3125 C 25.296875 77.484375 25.261719 77.664062 25.261719 77.851562 L 25.261719 83.515625 C 25.261719 83.703125 25.296875 83.882812 25.367188 84.054688 C 25.441406 84.230469 25.542969 84.382812 25.675781 84.515625 C 25.808594 84.648438 25.960938 84.75 26.132812 84.820312 C 26.308594 84.894531 26.488281 84.929688 26.675781 84.929688 L 63.472656 84.929688 C 63.660156 84.929688 63.84375 84.894531 64.015625 84.820312 C 64.1875 84.75 64.34375 84.648438 64.476562 84.515625 C 64.609375 84.382812 64.710938 84.230469 64.78125 84.054688 C 64.855469 83.882812 64.890625 83.703125 64.890625 83.515625 L 64.890625 77.851562 C 64.890625 77.664062 64.855469 77.484375 64.78125 77.3125 C 64.710938 77.136719 64.609375 76.984375 64.476562 76.851562 C 64.34375 76.71875 64.1875 76.617188 64.015625 76.542969 C 63.84375 76.472656 63.660156 76.4375 63.472656 76.4375 Z M 63.472656 83.515625 L 26.675781 83.515625 L 26.675781 77.851562 L 63.472656 77.851562 Z M 63.472656 83.515625 " fill-opacity="1" fill-rule="nonzero"/><path fill="#e68c15" d="M 13.9375 43.882812 L 9.691406 43.882812 L 9.691406 52.375 L 40.828125 52.375 L 40.828125 43.882812 L 36.582031 43.882812 L 36.582031 42.46875 L 40.828125 42.46875 C 41.015625 42.46875 41.195312 42.503906 41.371094 42.578125 C 41.542969 42.648438 41.695312 42.75 41.828125 42.882812 C 41.960938 43.015625 42.066406 43.167969 42.136719 43.34375 C 42.207031 43.515625 42.246094 43.695312 42.246094 43.882812 L 42.246094 52.375 C 42.246094 52.5625 42.207031 52.746094 42.136719 52.917969 C 42.066406 53.089844 41.960938 53.246094 41.828125 53.378906 C 41.695312 53.511719 41.542969 53.613281 41.371094 53.683594 C 41.195312 53.757812 41.015625 53.792969 40.828125 53.792969 L 9.691406 53.792969 C 9.503906 53.792969 9.324219 53.757812 9.148438 53.683594 C 8.976562 53.613281 8.824219 53.511719 8.691406 53.378906 C 8.558594 53.246094 8.457031 53.089844 8.382812 52.917969 C 8.3125 52.746094 8.277344 52.5625 8.277344 52.375 L 8.277344 43.882812 C 8.277344 43.695312 8.3125 43.515625 8.382812 43.34375 C 8.457031 43.167969 8.558594 43.015625 8.691406 42.882812 C 8.824219 42.75 8.976562 42.648438 9.148438 42.578125 C 9.324219 42.503906 9.503906 42.46875 9.691406 42.46875 L 13.9375 42.46875 Z M 13.9375 43.882812 " fill-opacity="1" fill-rule="nonzero"/></svg>