<svg xmlns="http://www.w3.org/2000/svg" xmlns:xlink="http://www.w3.org/1999/xlink" width="120" zoomAndPan="magnify" viewBox="0 0 90 89.999999" height="120" preserveAspectRatio="xMidYMid meet" version="1.0"><defs><clipPath id="15756aedc2"><path d="M 5.457031 10 L 84.207031 10 L 84.207031 90 L 5.457031 90 Z M 5.457031 10 " clip-rule="nonzero"/></clipPath></defs><path fill="#ffab00" d="M 83.125 50.328125 C 83.125 71.566406 66.015625 88.742188 44.867188 88.742188 C 23.71875 88.742188 6.609375 71.566406 6.609375 50.328125 C 6.609375 29.089844 23.789062 11.910156 44.867188 11.910156 C 65.945312 11.910156 83.125 29.089844 83.125 50.328125 Z M 83.125 50.328125 " fill-opacity="1" fill-rule="nonzero"/><g clip-path="url(#15756aedc2)"><path fill="#37474f" d="M 44.796875 89.832031 C 23.070312 89.832031 5.457031 72.070312 5.457031 50.328125 C 5.457031 28.511719 23.140625 10.824219 44.796875 10.824219 C 66.523438 10.824219 84.132812 28.582031 84.132812 50.328125 C 84.207031 72.144531 66.523438 89.832031 44.796875 89.832031 Z M 44.796875 13 C 24.296875 13 7.621094 29.742188 7.621094 50.328125 C 7.621094 70.914062 24.296875 87.65625 44.796875 87.65625 C 65.292969 87.65625 81.96875 70.914062 81.96875 50.328125 C 82.039062 29.742188 65.292969 13 44.796875 13 Z M 44.796875 13 " fill-opacity="1" fill-rule="nonzero"/></g><path fill="#ffffff" d="M 78.433594 50.328125 C 78.433594 68.957031 63.417969 84.03125 44.867188 84.03125 C 26.316406 84.03125 11.304688 68.957031 11.304688 50.328125 C 11.304688 31.699219 26.316406 16.625 44.867188 16.625 C 63.347656 16.625 78.433594 31.699219 78.433594 50.328125 Z M 78.433594 50.328125 " fill-opacity="1" fill-rule="nonzero"/><path fill="#37474f" d="M 44.796875 85.117188 C 25.667969 85.117188 10.148438 69.535156 10.148438 50.328125 C 10.148438 31.121094 25.667969 15.535156 44.796875 15.535156 C 63.921875 15.535156 79.441406 31.121094 79.441406 50.328125 C 79.515625 69.535156 63.921875 85.117188 44.796875 85.117188 Z M 44.796875 17.710938 C 26.894531 17.710938 12.3125 32.351562 12.3125 50.328125 C 12.3125 68.304688 26.894531 82.945312 44.796875 82.945312 C 62.695312 82.945312 77.277344 68.304688 77.277344 50.328125 C 77.347656 32.351562 62.769531 17.710938 44.796875 17.710938 Z M 44.796875 17.710938 " fill-opacity="1" fill-rule="nonzero"/><path fill="#ffab00" d="M 48.117188 26.117188 C 48.117188 27.929688 46.671875 29.378906 44.867188 29.378906 C 43.0625 29.378906 41.621094 27.929688 41.621094 26.117188 C 41.621094 24.304688 43.0625 22.855469 44.867188 22.855469 C 46.601562 22.855469 48.117188 24.304688 48.117188 26.117188 Z M 48.117188 26.117188 " fill-opacity="1" fill-rule="nonzero"/><path fill="#37474f" d="M 48.117188 75.40625 C 48.117188 77.21875 46.671875 78.667969 44.867188 78.667969 C 43.0625 78.667969 41.621094 77.21875 41.621094 75.40625 C 41.621094 73.59375 43.0625 72.144531 44.867188 72.144531 C 46.601562 72.144531 48.117188 73.59375 48.117188 75.40625 Z M 48.117188 75.40625 " fill-opacity="1" fill-rule="nonzero"/><path fill="#37474f" d="M 69.335938 54.023438 C 67.53125 54.023438 66.089844 52.574219 66.089844 50.761719 C 66.089844 48.949219 67.53125 47.5 69.335938 47.5 C 71.140625 47.5 72.65625 48.949219 72.65625 50.761719 C 72.65625 52.574219 71.140625 54.023438 69.335938 54.023438 Z M 69.335938 54.023438 " fill-opacity="1" fill-rule="nonzero"/><path fill="#37474f" d="M 20.324219 54.023438 C 18.519531 54.023438 17.078125 52.574219 17.078125 50.761719 C 17.078125 48.949219 18.519531 47.5 20.324219 47.5 C 22.128906 47.5 23.574219 48.949219 23.574219 50.761719 C 23.574219 52.574219 22.128906 54.023438 20.324219 54.023438 Z M 20.324219 54.023438 " fill-opacity="1" fill-rule="nonzero"/><path fill="#78909c" d="M 29.78125 31.046875 C 31.082031 32.351562 31.082031 34.382812 29.78125 35.6875 C 28.480469 36.992188 26.460938 36.992188 25.160156 35.6875 C 23.863281 34.382812 23.863281 32.28125 25.160156 31.046875 C 26.460938 29.742188 28.480469 29.742188 29.78125 31.046875 Z M 29.78125 31.046875 " fill-opacity="1" fill-rule="nonzero"/><path fill="#78909c" d="M 64.5 65.839844 C 65.800781 67.144531 65.726562 69.171875 64.5 70.476562 C 63.203125 71.78125 61.109375 71.78125 59.882812 70.476562 C 58.582031 69.171875 58.582031 67.144531 59.882812 65.839844 C 61.109375 64.605469 63.203125 64.605469 64.5 65.839844 Z M 64.5 65.839844 " fill-opacity="1" fill-rule="nonzero"/><path fill="#78909c" d="M 64.5 35.6875 C 63.203125 36.992188 61.109375 36.992188 59.882812 35.6875 C 58.582031 34.382812 58.582031 32.351562 59.882812 31.046875 C 61.179688 29.742188 63.203125 29.742188 64.5 31.046875 C 65.726562 32.28125 65.800781 34.382812 64.5 35.6875 Z M 64.5 35.6875 " fill-opacity="1" fill-rule="nonzero"/><path fill="#78909c" d="M 29.78125 70.550781 C 28.480469 71.855469 26.460938 71.855469 25.160156 70.550781 C 23.863281 69.246094 23.863281 67.214844 25.160156 65.910156 C 26.460938 64.605469 28.480469 64.605469 29.78125 65.910156 C 31.082031 67.144531 31.082031 69.246094 29.78125 70.550781 Z M 29.78125 70.550781 " fill-opacity="1" fill-rule="nonzero"/><path fill="#37474f" d="M 44.21875 51.996094 C 43.640625 51.996094 43.136719 51.488281 43.136719 50.90625 L 43.136719 33.511719 C 43.136719 32.933594 43.640625 32.425781 44.21875 32.425781 C 44.796875 32.425781 45.300781 32.933594 45.300781 33.511719 L 45.300781 50.90625 C 45.300781 51.488281 44.796875 51.996094 44.21875 51.996094 Z M 44.21875 51.996094 " fill-opacity="1" fill-rule="nonzero"/><path fill="#b0bec5" d="M 29.855469 50.328125 C 29.855469 50.691406 29.492188 51.050781 29.132812 51.050781 C 28.769531 51.050781 28.410156 50.691406 28.410156 50.328125 C 28.410156 49.964844 28.769531 49.601562 29.132812 49.601562 C 29.566406 49.601562 29.855469 49.964844 29.855469 50.328125 Z M 29.855469 50.328125 " fill-opacity="1" fill-rule="nonzero"/><path fill="#b0bec5" d="M 29.132812 51.414062 C 28.554688 51.414062 28.050781 50.90625 28.050781 50.328125 C 28.050781 49.746094 28.554688 49.238281 29.132812 49.238281 C 29.710938 49.238281 30.214844 49.746094 30.214844 50.328125 C 30.214844 50.90625 29.710938 51.414062 29.132812 51.414062 Z M 29.132812 49.964844 C 28.914062 49.964844 28.769531 50.109375 28.769531 50.328125 C 28.769531 50.542969 28.914062 50.691406 29.132812 50.691406 C 29.347656 50.691406 29.492188 50.542969 29.492188 50.328125 C 29.492188 50.109375 29.347656 49.964844 29.132812 49.964844 Z M 29.132812 49.964844 " fill-opacity="1" fill-rule="nonzero"/><path fill="#b0bec5" d="M 34.90625 50.328125 C 34.90625 50.691406 34.617188 51.050781 34.183594 51.050781 C 33.824219 51.050781 33.460938 50.691406 33.460938 50.328125 C 33.460938 49.964844 33.824219 49.601562 34.183594 49.601562 C 34.546875 49.601562 34.90625 49.964844 34.90625 50.328125 Z M 34.90625 50.328125 " fill-opacity="1" fill-rule="nonzero"/><path fill="#b0bec5" d="M 34.183594 51.414062 C 33.605469 51.414062 33.101562 50.90625 33.101562 50.328125 C 33.101562 49.746094 33.605469 49.238281 34.183594 49.238281 C 34.761719 49.238281 35.265625 49.746094 35.265625 50.328125 C 35.265625 50.90625 34.761719 51.414062 34.183594 51.414062 Z M 34.183594 49.964844 C 33.96875 49.964844 33.824219 50.109375 33.824219 50.328125 C 33.824219 50.542969 33.96875 50.691406 34.183594 50.691406 C 34.402344 50.691406 34.546875 50.542969 34.546875 50.328125 C 34.546875 50.109375 34.402344 49.964844 34.183594 49.964844 Z M 34.183594 49.964844 " fill-opacity="1" fill-rule="nonzero"/><path fill="#b0bec5" d="M 39.960938 50.328125 C 39.960938 50.691406 39.597656 51.050781 39.238281 51.050781 C 38.804688 51.050781 38.515625 50.691406 38.515625 50.328125 C 38.515625 49.964844 38.804688 49.601562 39.238281 49.601562 C 39.597656 49.601562 39.960938 49.964844 39.960938 50.328125 Z M 39.960938 50.328125 " fill-opacity="1" fill-rule="nonzero"/><path fill="#b0bec5" d="M 39.238281 51.414062 C 38.660156 51.414062 38.15625 50.90625 38.15625 50.328125 C 38.15625 49.746094 38.660156 49.238281 39.238281 49.238281 C 39.816406 49.238281 40.320312 49.746094 40.320312 50.328125 C 40.320312 50.90625 39.816406 51.414062 39.238281 51.414062 Z M 39.238281 49.964844 C 39.019531 49.964844 38.875 50.183594 38.875 50.328125 C 38.875 50.472656 39.019531 50.691406 39.238281 50.691406 C 39.453125 50.691406 39.597656 50.542969 39.597656 50.328125 C 39.597656 50.109375 39.453125 49.964844 39.238281 49.964844 Z M 39.238281 49.964844 " fill-opacity="1" fill-rule="nonzero"/><path fill="#ffab00" d="M 47.972656 50.398438 C 47.972656 52.140625 46.601562 53.515625 44.867188 53.515625 C 43.136719 53.515625 41.761719 52.066406 41.761719 50.398438 C 41.761719 48.660156 43.136719 47.210938 44.867188 47.210938 C 46.601562 47.210938 47.972656 48.660156 47.972656 50.398438 Z M 47.972656 50.398438 " fill-opacity="1" fill-rule="nonzero"/><path fill="#37474f" d="M 44.796875 54.605469 C 42.484375 54.605469 40.609375 52.71875 40.609375 50.398438 C 40.609375 48.082031 42.484375 46.125 44.796875 46.125 C 47.105469 46.125 48.980469 48.007812 48.980469 50.398438 C 49.054688 52.71875 47.175781 54.605469 44.796875 54.605469 Z M 44.796875 48.296875 C 43.640625 48.296875 42.773438 49.238281 42.773438 50.398438 C 42.773438 51.558594 43.710938 52.429688 44.796875 52.429688 C 45.878906 52.429688 46.816406 51.488281 46.816406 50.398438 C 46.886719 49.238281 45.949219 48.296875 44.796875 48.296875 Z M 44.796875 48.296875 " fill-opacity="1" fill-rule="nonzero"/><path fill="#ffab00" d="M 37 1.257812 L 52.878906 1.257812 L 52.878906 7.054688 L 37 7.054688 Z M 37 1.257812 " fill-opacity="1" fill-rule="nonzero"/><path fill="#37474f" d="M 52.878906 8.144531 L 37 8.144531 C 36.421875 8.144531 35.917969 7.636719 35.917969 7.054688 L 35.917969 1.257812 C 35.917969 0.675781 36.421875 0.167969 37 0.167969 L 52.878906 0.167969 C 53.457031 0.167969 53.960938 0.675781 53.960938 1.257812 L 53.960938 7.054688 C 53.960938 7.636719 53.457031 8.144531 52.878906 8.144531 Z M 38.082031 5.96875 L 51.796875 5.96875 L 51.796875 2.34375 L 38.082031 2.34375 Z M 38.082031 5.96875 " fill-opacity="1" fill-rule="nonzero"/><path fill="#37474f" d="M 40.96875 5.96875 L 48.910156 5.96875 L 48.910156 11.765625 L 40.96875 11.765625 Z M 40.96875 5.96875 " fill-opacity="1" fill-rule="nonzero"/></svg>