<svg width="198" height="206" viewBox="0 0 198 206" fill="none" xmlns="http://www.w3.org/2000/svg">
<g opacity="0.1">
<mask id="path-1-inside-1" fill="white">
<path d="M14.8531 51.7116C13.3626 51.7195 11.8802 51.4922 10.4606 51.0381C8.61685 50.4661 6.90444 49.5352 5.42188 48.2989C3.93931 47.0626 2.71585 45.5453 1.8219 43.8343C0.921074 42.118 0.370029 40.2398 0.200729 38.3088C0.0314283 36.3778 0.247242 34.4324 0.835651 32.5854C1.42406 30.7385 2.37335 29.0268 3.62845 27.5495C4.88356 26.0723 6.41949 24.859 8.14716 23.98C68.12 -7.47056 129.264 -7.47056 189.706 23.98C192.672 25.4658 195.046 27.9151 196.439 30.9265C197.831 33.938 198.16 37.3332 197.37 40.5557C196.581 43.7783 194.72 46.6372 192.093 48.664C189.467 50.6908 186.229 51.7654 182.912 51.7116C180.597 51.739 178.309 51.2171 176.235 50.1889C124.022 22.9258 73.4789 22.9258 21.6762 50.1889C19.5581 51.24 17.2171 51.7624 14.8531 51.7116ZM98.9264 6.26345C68.1002 6.5629 37.8204 14.4371 10.7534 29.1925C8.67586 30.2798 7.11535 32.1479 6.41515 34.3858C5.71495 36.6237 5.93243 39.0481 7.01974 41.1256C8.10705 43.2031 9.97512 44.7637 12.213 45.4639C14.4509 46.1641 16.8753 45.9466 18.9528 44.8593C72.5711 16.7763 124.901 16.7763 178.929 44.8593C180.186 45.5146 181.582 45.8562 183 45.8549C185.012 45.919 186.985 45.2899 188.589 44.0729C190.193 42.856 191.331 41.125 191.811 39.1697C192.291 37.2145 192.085 35.1536 191.227 33.332C190.37 31.5104 188.912 30.0387 187.099 29.1632C159.998 14.499 129.739 6.64026 98.9264 6.26345Z"/>
<path d="M98.9264 205.392C98.3856 205.39 97.8559 205.239 97.3958 204.955C96.9358 204.671 96.5635 204.264 96.3201 203.781L18.5721 48.2855C18.2226 47.5904 18.1636 46.7849 18.408 46.0462C18.6524 45.3076 19.1801 44.6963 19.8753 44.3468C20.5704 43.9973 21.3758 43.9383 22.1145 44.1826C22.8531 44.427 23.4644 44.9548 23.8139 45.6499L98.9264 195.904L174.039 45.6792C174.207 45.3289 174.444 45.0156 174.735 44.7577C175.026 44.4998 175.365 44.3024 175.733 44.177C176.101 44.0517 176.49 44.0008 176.878 44.0274C177.266 44.0541 177.645 44.1577 177.992 44.3322C178.687 44.678 179.216 45.2856 179.463 46.0214C179.71 46.7572 179.655 47.561 179.31 48.2562L101.533 203.781C101.289 204.264 100.917 204.671 100.457 204.955C99.9969 205.239 99.4672 205.39 98.9264 205.392Z"/>
<path d="M145.341 64.245C144.956 64.2473 144.574 64.1734 144.217 64.0277C143.86 63.8819 143.535 63.6672 143.262 63.3958L136.614 56.7484C136.069 56.1998 135.763 55.4576 135.763 54.6839C135.763 53.9103 136.069 53.1681 136.614 52.6194C136.887 52.345 137.211 52.1271 137.567 51.9784C137.924 51.8298 138.307 51.7532 138.694 51.7532C139.08 51.7532 139.463 51.8298 139.82 51.9784C140.177 52.1271 140.5 52.345 140.773 52.6194L147.42 59.2375C147.695 59.5098 147.912 59.8336 148.061 60.1905C148.21 60.5473 148.286 60.9301 148.286 61.3167C148.286 61.7032 148.21 62.086 148.061 62.4428C147.912 62.7997 147.695 63.1236 147.42 63.3958C147.146 63.6672 146.822 63.8819 146.465 64.0277C146.108 64.1734 145.726 64.2473 145.341 64.245Z"/>
<path d="M115.442 66.3242C115.057 66.3264 114.675 66.2525 114.318 66.1068C113.961 65.9611 113.637 65.7463 113.363 65.4749C113.089 65.2027 112.871 64.8788 112.722 64.522C112.574 64.1651 112.497 63.7824 112.497 63.3958C112.497 63.0092 112.574 62.6265 112.722 62.2696C112.871 61.9128 113.089 61.5889 113.363 61.3167L120.011 54.6986C120.291 54.4275 120.623 54.2143 120.986 54.0712C121.349 53.9282 121.737 53.8581 122.127 53.8649C122.517 53.8717 122.902 53.9553 123.26 54.1109C123.618 54.2665 123.942 54.491 124.213 54.7718C124.484 55.0525 124.697 55.3839 124.84 55.747C124.983 56.1101 125.053 56.4978 125.046 56.888C125.04 57.2782 124.956 57.6633 124.8 58.0212C124.645 58.3791 124.42 58.7029 124.14 58.974L117.521 65.6214C116.946 66.1163 116.2 66.3683 115.442 66.3242Z"/>
<path d="M116.497 100.791C115.72 100.791 114.975 100.482 114.426 99.9333C113.877 99.3841 113.568 98.6393 113.568 97.8626V87.7598C113.568 86.9831 113.877 86.2383 114.426 85.6891C114.975 85.1399 115.72 84.8314 116.497 84.8314C117.273 84.8314 118.018 85.1399 118.567 85.6891C119.116 86.2383 119.425 86.9831 119.425 87.7598V97.8626C119.425 98.6393 119.116 99.3841 118.567 99.9333C118.018 100.482 117.273 100.791 116.497 100.791Z"/>
<path d="M142.266 87.6134C141.881 87.6156 141.499 87.5417 141.142 87.396C140.785 87.2503 140.461 87.0355 140.187 86.7641L133.042 79.6189C132.767 79.3467 132.549 79.0228 132.401 78.666C132.252 78.3091 132.176 77.9264 132.176 77.5398C132.176 77.1532 132.252 76.7705 132.401 76.4136C132.549 76.0568 132.767 75.7329 133.042 75.4606C133.59 74.9152 134.333 74.6091 135.106 74.6091C135.88 74.6091 136.622 74.9152 137.171 75.4606L144.345 82.6059C144.62 82.8781 144.838 83.202 144.986 83.5588C145.135 83.9157 145.211 84.2984 145.211 84.685C145.211 85.0716 145.135 85.4543 144.986 85.8112C144.838 86.168 144.62 86.4919 144.345 86.7641C144.072 87.0355 143.747 87.2503 143.39 87.396C143.034 87.5417 142.652 87.6156 142.266 87.6134Z"/>
<path d="M66.7144 58.0662C66.3528 58.0693 65.9943 57.9996 65.6602 57.8612L56.8751 54.435C56.1852 54.1291 55.64 53.5687 55.3532 52.8706C55.0665 52.1725 55.0603 51.3906 55.3361 50.6881C55.6118 49.9856 56.1481 49.4166 56.8331 49.0999C57.5182 48.7832 58.299 48.7432 59.0128 48.9883L67.7979 52.4144C68.4324 52.6652 68.9594 53.1296 69.2879 53.7275C69.6165 54.3253 69.726 55.0192 69.5976 55.6892C69.4691 56.3592 69.1108 56.9633 68.5844 57.3973C68.058 57.8313 67.3966 58.0679 66.7144 58.0662Z"/>
<path d="M68.3543 103.69C67.9942 103.679 67.6383 103.609 67.3001 103.485C66.9396 103.346 66.6103 103.137 66.331 102.87C66.0517 102.603 65.8281 102.283 65.6729 101.929C65.5178 101.575 65.4342 101.194 65.4269 100.808C65.4197 100.422 65.4891 100.038 65.6309 99.6782L69.0571 90.8931C69.1994 90.5355 69.4107 90.2094 69.679 89.9334C69.9473 89.6574 70.2674 89.437 70.6209 89.2848C70.9744 89.1325 71.3544 89.0513 71.7393 89.0459C72.1242 89.0405 72.5063 89.111 72.864 89.2532C73.2216 89.3955 73.5477 89.6069 73.8237 89.8752C74.0996 90.1435 74.3201 90.4635 74.4723 90.817C74.6246 91.1705 74.7058 91.5506 74.7112 91.9354C74.7166 92.3203 74.6461 92.7025 74.5038 93.0601L71.0777 101.845C70.8607 102.39 70.4851 102.857 69.9995 103.186C69.5139 103.515 68.9408 103.691 68.3543 103.69Z"/>
<path d="M53.9175 83.9822C53.5559 83.9853 53.1973 83.9156 52.8633 83.7772C52.1424 83.4959 51.5621 82.9406 51.2493 82.2328C50.9366 81.5249 50.9167 80.7221 51.1941 79.9996L54.6496 71.2145C54.7779 70.8407 54.9806 70.4967 55.2454 70.2033C55.5102 69.9099 55.8316 69.6732 56.1904 69.5073C56.5491 69.3414 56.9377 69.2499 57.3328 69.2382C57.7279 69.2266 58.1212 69.295 58.4891 69.4394C58.857 69.5838 59.1919 69.8012 59.4736 70.0784C59.7552 70.3557 59.9779 70.6871 60.128 71.0527C60.2782 71.4183 60.3528 71.8105 60.3473 72.2057C60.3419 72.6009 60.2565 72.9909 60.0963 73.3522L56.6701 82.1373C56.4513 82.6869 56.0712 83.1572 55.5798 83.4866C55.0885 83.8159 54.5089 83.9887 53.9175 83.9822Z"/>
<path d="M83.1425 134.848C82.576 134.844 82.0227 134.676 81.5497 134.364C81.0767 134.052 80.7043 133.61 80.4777 133.091L76.4366 123.808C76.2584 123.453 76.1544 123.065 76.131 122.668C76.1075 122.271 76.1652 121.873 76.3003 121.5C76.4355 121.126 76.6454 120.783 76.9172 120.493C77.189 120.203 77.517 119.971 77.8813 119.812C78.2455 119.653 78.6384 119.569 79.0359 119.567C79.4335 119.564 79.8274 119.643 80.1936 119.798C80.5598 119.952 80.8907 120.18 81.1661 120.467C81.4415 120.753 81.6556 121.093 81.7955 121.465L85.8366 130.748C86.1389 131.463 86.1452 132.268 85.8542 132.987C85.5632 133.707 84.9987 134.281 84.2846 134.584C83.9275 134.754 83.5378 134.844 83.1425 134.848Z"/>
<path d="M98.1943 151.657C97.6588 151.662 97.1321 151.52 96.6716 151.247C96.3418 151.046 96.055 150.781 95.8278 150.469C95.6005 150.157 95.4373 149.803 95.3475 149.427C95.2577 149.052 95.243 148.662 95.3044 148.281C95.3658 147.899 95.502 147.534 95.7052 147.206L101.006 138.596C101.207 138.267 101.472 137.982 101.784 137.755C102.097 137.529 102.451 137.366 102.826 137.276C103.201 137.186 103.59 137.171 103.972 137.232C104.353 137.293 104.718 137.428 105.047 137.63C105.375 137.832 105.661 138.096 105.888 138.409C106.114 138.721 106.277 139.075 106.367 139.45C106.457 139.825 106.471 140.215 106.411 140.596C106.35 140.977 106.215 141.342 106.013 141.671L100.683 150.28C100.42 150.702 100.053 151.05 99.6172 151.291C99.1817 151.532 98.692 151.658 98.1943 151.657Z"/>
<path d="M98.1357 109.166C97.7661 109.155 97.4005 109.086 97.0522 108.961L87.6522 105.242C87.2784 105.114 86.9344 104.911 86.641 104.646C86.3476 104.381 86.1108 104.06 85.945 103.701C85.7791 103.343 85.6876 102.954 85.6759 102.559C85.6643 102.164 85.7327 101.77 85.8771 101.403C86.0215 101.035 86.2389 100.7 86.5161 100.418C86.7934 100.136 87.1248 99.9138 87.4904 99.7636C87.856 99.6135 88.2482 99.5389 88.6434 99.5443C89.0386 99.5498 89.4286 99.6351 89.7899 99.7953L99.2192 103.485C99.8743 103.722 100.424 104.184 100.768 104.79C101.113 105.395 101.231 106.103 101.1 106.788C100.97 107.472 100.6 108.087 100.056 108.523C99.513 108.959 98.832 109.187 98.1357 109.166Z"/>
<path d="M92.1912 84.5971C89.9659 84.6029 87.7889 83.9484 85.9359 82.7163C84.0828 81.4842 82.637 79.73 81.7814 77.6758C80.9258 75.6216 80.6989 73.3597 81.1295 71.1765C81.56 68.9932 82.6287 66.9869 84.2002 65.4113C85.7716 63.8357 87.7752 62.7618 89.9573 62.3256C92.1394 61.8893 94.4019 62.1103 96.4583 62.9605C98.5148 63.8108 100.273 65.252 101.51 67.1019C102.747 68.9517 103.407 71.127 103.407 73.3522C103.407 76.3295 102.226 79.1853 100.124 81.2933C98.0211 83.4012 95.1684 84.5894 92.1912 84.5971ZM92.1912 67.9933C91.123 67.9875 90.0772 68.2994 89.1867 68.8892C88.2961 69.479 87.601 70.3202 87.1895 71.306C86.7781 72.2917 86.6689 73.3775 86.8759 74.4255C87.0829 75.4734 87.5966 76.4362 88.3519 77.1915C89.1072 77.9468 90.07 78.4605 91.1179 78.6675C92.1659 78.8745 93.2517 78.7653 94.2374 78.3539C95.2232 77.9424 96.0644 77.2473 96.6542 76.3567C97.244 75.4662 97.5558 74.4204 97.5501 73.3522C97.5424 71.9333 96.9753 70.5747 95.972 69.5714C94.9687 68.5681 93.6101 68.001 92.1912 67.9933Z"/>
<path d="M113.773 132.769C111.549 132.769 109.375 132.109 107.526 130.874C105.677 129.638 104.235 127.882 103.384 125.827C102.533 123.772 102.31 121.511 102.744 119.33C103.178 117.149 104.249 115.145 105.822 113.572C107.394 112 109.398 110.929 111.579 110.495C113.761 110.061 116.022 110.284 118.076 111.135C120.131 111.986 121.887 113.427 123.123 115.276C124.359 117.126 125.018 119.3 125.018 121.524C125.018 124.506 123.833 127.366 121.725 129.475C119.616 131.584 116.756 132.769 113.773 132.769ZM113.773 116.165C112.706 116.165 111.663 116.482 110.777 117.075C109.89 117.668 109.199 118.512 108.792 119.498C108.385 120.484 108.28 121.569 108.491 122.615C108.701 123.661 109.217 124.621 109.974 125.373C110.73 126.126 111.693 126.637 112.74 126.841C113.787 127.046 114.871 126.935 115.856 126.523C116.84 126.11 117.679 125.415 118.268 124.525C118.856 123.635 119.167 122.591 119.161 121.524C119.161 120.818 119.022 120.118 118.751 119.466C118.48 118.814 118.082 118.222 117.581 117.724C117.081 117.226 116.486 116.832 115.833 116.564C115.179 116.297 114.479 116.161 113.773 116.165Z"/>
</mask>
<path d="M14.8531 51.7116C13.3626 51.7195 11.8802 51.4922 10.4606 51.0381C8.61685 50.4661 6.90444 49.5352 5.42188 48.2989C3.93931 47.0626 2.71585 45.5453 1.8219 43.8343C0.921074 42.118 0.370029 40.2398 0.200729 38.3088C0.0314283 36.3778 0.247242 34.4324 0.835651 32.5854C1.42406 30.7385 2.37335 29.0268 3.62845 27.5495C4.88356 26.0723 6.41949 24.859 8.14716 23.98C68.12 -7.47056 129.264 -7.47056 189.706 23.98C192.672 25.4658 195.046 27.9151 196.439 30.9265C197.831 33.938 198.16 37.3332 197.37 40.5557C196.581 43.7783 194.72 46.6372 192.093 48.664C189.467 50.6908 186.229 51.7654 182.912 51.7116C180.597 51.739 178.309 51.2171 176.235 50.1889C124.022 22.9258 73.4789 22.9258 21.6762 50.1889C19.5581 51.24 17.2171 51.7624 14.8531 51.7116ZM98.9264 6.26345C68.1002 6.5629 37.8204 14.4371 10.7534 29.1925C8.67586 30.2798 7.11535 32.1479 6.41515 34.3858C5.71495 36.6237 5.93243 39.0481 7.01974 41.1256C8.10705 43.2031 9.97512 44.7637 12.213 45.4639C14.4509 46.1641 16.8753 45.9466 18.9528 44.8593C72.5711 16.7763 124.901 16.7763 178.929 44.8593C180.186 45.5146 181.582 45.8562 183 45.8549C185.012 45.919 186.985 45.2899 188.589 44.0729C190.193 42.856 191.331 41.125 191.811 39.1697C192.291 37.2145 192.085 35.1536 191.227 33.332C190.37 31.5104 188.912 30.0387 187.099 29.1632C159.998 14.499 129.739 6.64026 98.9264 6.26345Z" fill="#FFA101"/>
<path d="M98.9264 205.392C98.3856 205.39 97.8559 205.239 97.3958 204.955C96.9358 204.671 96.5635 204.264 96.3201 203.781L18.5721 48.2855C18.2226 47.5904 18.1636 46.7849 18.408 46.0462C18.6524 45.3076 19.1801 44.6963 19.8753 44.3468C20.5704 43.9973 21.3758 43.9383 22.1145 44.1826C22.8531 44.427 23.4644 44.9548 23.8139 45.6499L98.9264 195.904L174.039 45.6792C174.207 45.3289 174.444 45.0156 174.735 44.7577C175.026 44.4998 175.365 44.3024 175.733 44.177C176.101 44.0517 176.49 44.0008 176.878 44.0274C177.266 44.0541 177.645 44.1577 177.992 44.3322C178.687 44.678 179.216 45.2856 179.463 46.0214C179.71 46.7572 179.655 47.561 179.31 48.2562L101.533 203.781C101.289 204.264 100.917 204.671 100.457 204.955C99.9969 205.239 99.4672 205.39 98.9264 205.392Z" fill="#FFA101"/>
<path d="M145.341 64.245C144.956 64.2473 144.574 64.1734 144.217 64.0277C143.86 63.8819 143.535 63.6672 143.262 63.3958L136.614 56.7484C136.069 56.1998 135.763 55.4576 135.763 54.6839C135.763 53.9103 136.069 53.1681 136.614 52.6194C136.887 52.345 137.211 52.1271 137.567 51.9784C137.924 51.8298 138.307 51.7532 138.694 51.7532C139.08 51.7532 139.463 51.8298 139.82 51.9784C140.177 52.1271 140.5 52.345 140.773 52.6194L147.42 59.2375C147.695 59.5098 147.912 59.8336 148.061 60.1905C148.21 60.5473 148.286 60.9301 148.286 61.3167C148.286 61.7032 148.21 62.086 148.061 62.4428C147.912 62.7997 147.695 63.1236 147.42 63.3958C147.146 63.6672 146.822 63.8819 146.465 64.0277C146.108 64.1734 145.726 64.2473 145.341 64.245Z" fill="#FFA101"/>
<path d="M115.442 66.3242C115.057 66.3264 114.675 66.2525 114.318 66.1068C113.961 65.9611 113.637 65.7463 113.363 65.4749C113.089 65.2027 112.871 64.8788 112.722 64.522C112.574 64.1651 112.497 63.7824 112.497 63.3958C112.497 63.0092 112.574 62.6265 112.722 62.2696C112.871 61.9128 113.089 61.5889 113.363 61.3167L120.011 54.6986C120.291 54.4275 120.623 54.2143 120.986 54.0712C121.349 53.9282 121.737 53.8581 122.127 53.8649C122.517 53.8717 122.902 53.9553 123.26 54.1109C123.618 54.2665 123.942 54.491 124.213 54.7718C124.484 55.0525 124.697 55.3839 124.84 55.747C124.983 56.1101 125.053 56.4978 125.046 56.888C125.04 57.2782 124.956 57.6633 124.8 58.0212C124.645 58.3791 124.42 58.7029 124.14 58.974L117.521 65.6214C116.946 66.1163 116.2 66.3683 115.442 66.3242Z" fill="#FFA101"/>
<path d="M116.497 100.791C115.72 100.791 114.975 100.482 114.426 99.9333C113.877 99.3841 113.568 98.6393 113.568 97.8626V87.7598C113.568 86.9831 113.877 86.2383 114.426 85.6891C114.975 85.1399 115.72 84.8314 116.497 84.8314C117.273 84.8314 118.018 85.1399 118.567 85.6891C119.116 86.2383 119.425 86.9831 119.425 87.7598V97.8626C119.425 98.6393 119.116 99.3841 118.567 99.9333C118.018 100.482 117.273 100.791 116.497 100.791Z" fill="#FFA101"/>
<path d="M142.266 87.6134C141.881 87.6156 141.499 87.5417 141.142 87.396C140.785 87.2503 140.461 87.0355 140.187 86.7641L133.042 79.6189C132.767 79.3467 132.549 79.0228 132.401 78.666C132.252 78.3091 132.176 77.9264 132.176 77.5398C132.176 77.1532 132.252 76.7705 132.401 76.4136C132.549 76.0568 132.767 75.7329 133.042 75.4606C133.59 74.9152 134.333 74.6091 135.106 74.6091C135.88 74.6091 136.622 74.9152 137.171 75.4606L144.345 82.6059C144.62 82.8781 144.838 83.202 144.986 83.5588C145.135 83.9157 145.211 84.2984 145.211 84.685C145.211 85.0716 145.135 85.4543 144.986 85.8112C144.838 86.168 144.62 86.4919 144.345 86.7641C144.072 87.0355 143.747 87.2503 143.39 87.396C143.034 87.5417 142.652 87.6156 142.266 87.6134Z" fill="#FFA101"/>
<path d="M66.7144 58.0662C66.3528 58.0693 65.9943 57.9996 65.6602 57.8612L56.8751 54.435C56.1852 54.1291 55.64 53.5687 55.3532 52.8706C55.0665 52.1725 55.0603 51.3906 55.3361 50.6881C55.6118 49.9856 56.1481 49.4166 56.8331 49.0999C57.5182 48.7832 58.299 48.7432 59.0128 48.9883L67.7979 52.4144C68.4324 52.6652 68.9594 53.1296 69.2879 53.7275C69.6165 54.3253 69.726 55.0192 69.5976 55.6892C69.4691 56.3592 69.1108 56.9633 68.5844 57.3973C68.058 57.8313 67.3966 58.0679 66.7144 58.0662Z" fill="#FFA101"/>
<path d="M68.3543 103.69C67.9942 103.679 67.6383 103.609 67.3001 103.485C66.9396 103.346 66.6103 103.137 66.331 102.87C66.0517 102.603 65.8281 102.283 65.6729 101.929C65.5178 101.575 65.4342 101.194 65.4269 100.808C65.4197 100.422 65.4891 100.038 65.6309 99.6782L69.0571 90.8931C69.1994 90.5355 69.4107 90.2094 69.679 89.9334C69.9473 89.6574 70.2674 89.437 70.6209 89.2848C70.9744 89.1325 71.3544 89.0513 71.7393 89.0459C72.1242 89.0405 72.5063 89.111 72.864 89.2532C73.2216 89.3955 73.5477 89.6069 73.8237 89.8752C74.0996 90.1435 74.3201 90.4635 74.4723 90.817C74.6246 91.1705 74.7058 91.5506 74.7112 91.9354C74.7166 92.3203 74.6461 92.7025 74.5038 93.0601L71.0777 101.845C70.8607 102.39 70.4851 102.857 69.9995 103.186C69.5139 103.515 68.9408 103.691 68.3543 103.69Z" fill="#FFA101"/>
<path d="M53.9175 83.9822C53.5559 83.9853 53.1973 83.9156 52.8633 83.7772C52.1424 83.4959 51.5621 82.9406 51.2493 82.2328C50.9366 81.5249 50.9167 80.7221 51.1941 79.9996L54.6496 71.2145C54.7779 70.8407 54.9806 70.4967 55.2454 70.2033C55.5102 69.9099 55.8316 69.6732 56.1904 69.5073C56.5491 69.3414 56.9377 69.2499 57.3328 69.2382C57.7279 69.2266 58.1212 69.295 58.4891 69.4394C58.857 69.5838 59.1919 69.8012 59.4736 70.0784C59.7552 70.3557 59.9779 70.6871 60.128 71.0527C60.2782 71.4183 60.3528 71.8105 60.3473 72.2057C60.3419 72.6009 60.2565 72.9909 60.0963 73.3522L56.6701 82.1373C56.4513 82.6869 56.0712 83.1572 55.5798 83.4866C55.0885 83.8159 54.5089 83.9887 53.9175 83.9822Z" fill="#FFA101"/>
<path d="M83.1425 134.848C82.576 134.844 82.0227 134.676 81.5497 134.364C81.0767 134.052 80.7043 133.61 80.4777 133.091L76.4366 123.808C76.2584 123.453 76.1544 123.065 76.131 122.668C76.1075 122.271 76.1652 121.873 76.3003 121.5C76.4355 121.126 76.6454 120.783 76.9172 120.493C77.189 120.203 77.517 119.971 77.8813 119.812C78.2455 119.653 78.6384 119.569 79.0359 119.567C79.4335 119.564 79.8274 119.643 80.1936 119.798C80.5598 119.952 80.8907 120.18 81.1661 120.467C81.4415 120.753 81.6556 121.093 81.7955 121.465L85.8366 130.748C86.1389 131.463 86.1452 132.268 85.8542 132.987C85.5632 133.707 84.9987 134.281 84.2846 134.584C83.9275 134.754 83.5378 134.844 83.1425 134.848Z" fill="#FFA101"/>
<path d="M98.1943 151.657C97.6588 151.662 97.1321 151.52 96.6716 151.247C96.3418 151.046 96.055 150.781 95.8278 150.469C95.6005 150.157 95.4373 149.803 95.3475 149.427C95.2577 149.052 95.243 148.662 95.3044 148.281C95.3658 147.899 95.502 147.534 95.7052 147.206L101.006 138.596C101.207 138.267 101.472 137.982 101.784 137.755C102.097 137.529 102.451 137.366 102.826 137.276C103.201 137.186 103.59 137.171 103.972 137.232C104.353 137.293 104.718 137.428 105.047 137.63C105.375 137.832 105.661 138.096 105.888 138.409C106.114 138.721 106.277 139.075 106.367 139.45C106.457 139.825 106.471 140.215 106.411 140.596C106.35 140.977 106.215 141.342 106.013 141.671L100.683 150.28C100.42 150.702 100.053 151.05 99.6172 151.291C99.1817 151.532 98.692 151.658 98.1943 151.657Z" fill="#FFA101"/>
<path d="M98.1357 109.166C97.7661 109.155 97.4005 109.086 97.0522 108.961L87.6522 105.242C87.2784 105.114 86.9344 104.911 86.641 104.646C86.3476 104.381 86.1108 104.06 85.945 103.701C85.7791 103.343 85.6876 102.954 85.6759 102.559C85.6643 102.164 85.7327 101.77 85.8771 101.403C86.0215 101.035 86.2389 100.7 86.5161 100.418C86.7934 100.136 87.1248 99.9138 87.4904 99.7636C87.856 99.6135 88.2482 99.5389 88.6434 99.5443C89.0386 99.5498 89.4286 99.6351 89.7899 99.7953L99.2192 103.485C99.8743 103.722 100.424 104.184 100.768 104.79C101.113 105.395 101.231 106.103 101.1 106.788C100.97 107.472 100.6 108.087 100.056 108.523C99.513 108.959 98.832 109.187 98.1357 109.166Z" fill="#FFA101"/>
<path d="M92.1912 84.5971C89.9659 84.6029 87.7889 83.9484 85.9359 82.7163C84.0828 81.4842 82.637 79.73 81.7814 77.6758C80.9258 75.6216 80.6989 73.3597 81.1295 71.1765C81.56 68.9932 82.6287 66.9869 84.2002 65.4113C85.7716 63.8357 87.7752 62.7618 89.9573 62.3256C92.1394 61.8893 94.4019 62.1103 96.4583 62.9605C98.5148 63.8108 100.273 65.252 101.51 67.1019C102.747 68.9517 103.407 71.127 103.407 73.3522C103.407 76.3295 102.226 79.1853 100.124 81.2933C98.0211 83.4012 95.1684 84.5894 92.1912 84.5971ZM92.1912 67.9933C91.123 67.9875 90.0772 68.2994 89.1867 68.8892C88.2961 69.479 87.601 70.3202 87.1895 71.306C86.7781 72.2917 86.6689 73.3775 86.8759 74.4255C87.0829 75.4734 87.5966 76.4362 88.3519 77.1915C89.1072 77.9468 90.07 78.4605 91.1179 78.6675C92.1659 78.8745 93.2517 78.7653 94.2374 78.3539C95.2232 77.9424 96.0644 77.2473 96.6542 76.3567C97.244 75.4662 97.5558 74.4204 97.5501 73.3522C97.5424 71.9333 96.9753 70.5747 95.972 69.5714C94.9687 68.5681 93.6101 68.001 92.1912 67.9933Z" fill="#FFA101"/>
<path d="M113.773 132.769C111.549 132.769 109.375 132.109 107.526 130.874C105.677 129.638 104.235 127.882 103.384 125.827C102.533 123.772 102.31 121.511 102.744 119.33C103.178 117.149 104.249 115.145 105.822 113.572C107.394 112 109.398 110.929 111.579 110.495C113.761 110.061 116.022 110.284 118.076 111.135C120.131 111.986 121.887 113.427 123.123 115.276C124.359 117.126 125.018 119.3 125.018 121.524C125.018 124.506 123.833 127.366 121.725 129.475C119.616 131.584 116.756 132.769 113.773 132.769ZM113.773 116.165C112.706 116.165 111.663 116.482 110.777 117.075C109.89 117.668 109.199 118.512 108.792 119.498C108.385 120.484 108.28 121.569 108.491 122.615C108.701 123.661 109.217 124.621 109.974 125.373C110.73 126.126 111.693 126.637 112.74 126.841C113.787 127.046 114.871 126.935 115.856 126.523C116.84 126.11 117.679 125.415 118.268 124.525C118.856 123.635 119.167 122.591 119.161 121.524C119.161 120.818 119.022 120.118 118.751 119.466C118.48 118.814 118.082 118.222 117.581 117.724C117.081 117.226 116.486 116.832 115.833 116.564C115.179 116.297 114.479 116.161 113.773 116.165Z" fill="#FFA101"/>
<path d="M14.8531 51.7116C13.3626 51.7195 11.8802 51.4922 10.4606 51.0381C8.61685 50.4661 6.90444 49.5352 5.42188 48.2989C3.93931 47.0626 2.71585 45.5453 1.8219 43.8343C0.921074 42.118 0.370029 40.2398 0.200729 38.3088C0.0314283 36.3778 0.247242 34.4324 0.835651 32.5854C1.42406 30.7385 2.37335 29.0268 3.62845 27.5495C4.88356 26.0723 6.41949 24.859 8.14716 23.98C68.12 -7.47056 129.264 -7.47056 189.706 23.98C192.672 25.4658 195.046 27.9151 196.439 30.9265C197.831 33.938 198.16 37.3332 197.37 40.5557C196.581 43.7783 194.72 46.6372 192.093 48.664C189.467 50.6908 186.229 51.7654 182.912 51.7116C180.597 51.739 178.309 51.2171 176.235 50.1889C124.022 22.9258 73.4789 22.9258 21.6762 50.1889C19.5581 51.24 17.2171 51.7624 14.8531 51.7116ZM98.9264 6.26345C68.1002 6.5629 37.8204 14.4371 10.7534 29.1925C8.67586 30.2798 7.11535 32.1479 6.41515 34.3858C5.71495 36.6237 5.93243 39.0481 7.01974 41.1256C8.10705 43.2031 9.97512 44.7637 12.213 45.4639C14.4509 46.1641 16.8753 45.9466 18.9528 44.8593C72.5711 16.7763 124.901 16.7763 178.929 44.8593C180.186 45.5146 181.582 45.8562 183 45.8549C185.012 45.919 186.985 45.2899 188.589 44.0729C190.193 42.856 191.331 41.125 191.811 39.1697C192.291 37.2145 192.085 35.1536 191.227 33.332C190.37 31.5104 188.912 30.0387 187.099 29.1632C159.998 14.499 129.739 6.64026 98.9264 6.26345Z" stroke="white" stroke-width="5" mask="url(#path-1-inside-1)"/>
<path d="M98.9264 205.392C98.3856 205.39 97.8559 205.239 97.3958 204.955C96.9358 204.671 96.5635 204.264 96.3201 203.781L18.5721 48.2855C18.2226 47.5904 18.1636 46.7849 18.408 46.0462C18.6524 45.3076 19.1801 44.6963 19.8753 44.3468C20.5704 43.9973 21.3758 43.9383 22.1145 44.1826C22.8531 44.427 23.4644 44.9548 23.8139 45.6499L98.9264 195.904L174.039 45.6792C174.207 45.3289 174.444 45.0156 174.735 44.7577C175.026 44.4998 175.365 44.3024 175.733 44.177C176.101 44.0517 176.49 44.0008 176.878 44.0274C177.266 44.0541 177.645 44.1577 177.992 44.3322C178.687 44.678 179.216 45.2856 179.463 46.0214C179.71 46.7572 179.655 47.561 179.31 48.2562L101.533 203.781C101.289 204.264 100.917 204.671 100.457 204.955C99.9969 205.239 99.4672 205.39 98.9264 205.392Z" stroke="white" stroke-width="5" mask="url(#path-1-inside-1)"/>
<path d="M145.341 64.245C144.956 64.2473 144.574 64.1734 144.217 64.0277C143.86 63.8819 143.535 63.6672 143.262 63.3958L136.614 56.7484C136.069 56.1998 135.763 55.4576 135.763 54.6839C135.763 53.9103 136.069 53.1681 136.614 52.6194C136.887 52.345 137.211 52.1271 137.567 51.9784C137.924 51.8298 138.307 51.7532 138.694 51.7532C139.08 51.7532 139.463 51.8298 139.82 51.9784C140.177 52.1271 140.5 52.345 140.773 52.6194L147.42 59.2375C147.695 59.5098 147.912 59.8336 148.061 60.1905C148.21 60.5473 148.286 60.9301 148.286 61.3167C148.286 61.7032 148.21 62.086 148.061 62.4428C147.912 62.7997 147.695 63.1236 147.42 63.3958C147.146 63.6672 146.822 63.8819 146.465 64.0277C146.108 64.1734 145.726 64.2473 145.341 64.245Z" stroke="white" stroke-width="5" mask="url(#path-1-inside-1)"/>
<path d="M115.442 66.3242C115.057 66.3264 114.675 66.2525 114.318 66.1068C113.961 65.9611 113.637 65.7463 113.363 65.4749C113.089 65.2027 112.871 64.8788 112.722 64.522C112.574 64.1651 112.497 63.7824 112.497 63.3958C112.497 63.0092 112.574 62.6265 112.722 62.2696C112.871 61.9128 113.089 61.5889 113.363 61.3167L120.011 54.6986C120.291 54.4275 120.623 54.2143 120.986 54.0712C121.349 53.9282 121.737 53.8581 122.127 53.8649C122.517 53.8717 122.902 53.9553 123.26 54.1109C123.618 54.2665 123.942 54.491 124.213 54.7718C124.484 55.0525 124.697 55.3839 124.84 55.747C124.983 56.1101 125.053 56.4978 125.046 56.888C125.04 57.2782 124.956 57.6633 124.8 58.0212C124.645 58.3791 124.42 58.7029 124.14 58.974L117.521 65.6214C116.946 66.1163 116.2 66.3683 115.442 66.3242Z" stroke="white" stroke-width="5" mask="url(#path-1-inside-1)"/>
<path d="M116.497 100.791C115.72 100.791 114.975 100.482 114.426 99.9333C113.877 99.3841 113.568 98.6393 113.568 97.8626V87.7598C113.568 86.9831 113.877 86.2383 114.426 85.6891C114.975 85.1399 115.72 84.8314 116.497 84.8314C117.273 84.8314 118.018 85.1399 118.567 85.6891C119.116 86.2383 119.425 86.9831 119.425 87.7598V97.8626C119.425 98.6393 119.116 99.3841 118.567 99.9333C118.018 100.482 117.273 100.791 116.497 100.791Z" stroke="white" stroke-width="5" mask="url(#path-1-inside-1)"/>
<path d="M142.266 87.6134C141.881 87.6156 141.499 87.5417 141.142 87.396C140.785 87.2503 140.461 87.0355 140.187 86.7641L133.042 79.6189C132.767 79.3467 132.549 79.0228 132.401 78.666C132.252 78.3091 132.176 77.9264 132.176 77.5398C132.176 77.1532 132.252 76.7705 132.401 76.4136C132.549 76.0568 132.767 75.7329 133.042 75.4606C133.59 74.9152 134.333 74.6091 135.106 74.6091C135.88 74.6091 136.622 74.9152 137.171 75.4606L144.345 82.6059C144.62 82.8781 144.838 83.202 144.986 83.5588C145.135 83.9157 145.211 84.2984 145.211 84.685C145.211 85.0716 145.135 85.4543 144.986 85.8112C144.838 86.168 144.62 86.4919 144.345 86.7641C144.072 87.0355 143.747 87.2503 143.39 87.396C143.034 87.5417 142.652 87.6156 142.266 87.6134Z" stroke="white" stroke-width="5" mask="url(#path-1-inside-1)"/>
<path d="M66.7144 58.0662C66.3528 58.0693 65.9943 57.9996 65.6602 57.8612L56.8751 54.435C56.1852 54.1291 55.64 53.5687 55.3532 52.8706C55.0665 52.1725 55.0603 51.3906 55.3361 50.6881C55.6118 49.9856 56.1481 49.4166 56.8331 49.0999C57.5182 48.7832 58.299 48.7432 59.0128 48.9883L67.7979 52.4144C68.4324 52.6652 68.9594 53.1296 69.2879 53.7275C69.6165 54.3253 69.726 55.0192 69.5976 55.6892C69.4691 56.3592 69.1108 56.9633 68.5844 57.3973C68.058 57.8313 67.3966 58.0679 66.7144 58.0662Z" stroke="white" stroke-width="5" mask="url(#path-1-inside-1)"/>
<path d="M68.3543 103.69C67.9942 103.679 67.6383 103.609 67.3001 103.485C66.9396 103.346 66.6103 103.137 66.331 102.87C66.0517 102.603 65.8281 102.283 65.6729 101.929C65.5178 101.575 65.4342 101.194 65.4269 100.808C65.4197 100.422 65.4891 100.038 65.6309 99.6782L69.0571 90.8931C69.1994 90.5355 69.4107 90.2094 69.679 89.9334C69.9473 89.6574 70.2674 89.437 70.6209 89.2848C70.9744 89.1325 71.3544 89.0513 71.7393 89.0459C72.1242 89.0405 72.5063 89.111 72.864 89.2532C73.2216 89.3955 73.5477 89.6069 73.8237 89.8752C74.0996 90.1435 74.3201 90.4635 74.4723 90.817C74.6246 91.1705 74.7058 91.5506 74.7112 91.9354C74.7166 92.3203 74.6461 92.7025 74.5038 93.0601L71.0777 101.845C70.8607 102.39 70.4851 102.857 69.9995 103.186C69.5139 103.515 68.9408 103.691 68.3543 103.69Z" stroke="white" stroke-width="5" mask="url(#path-1-inside-1)"/>
<path d="M53.9175 83.9822C53.5559 83.9853 53.1973 83.9156 52.8633 83.7772C52.1424 83.4959 51.5621 82.9406 51.2493 82.2328C50.9366 81.5249 50.9167 80.7221 51.1941 79.9996L54.6496 71.2145C54.7779 70.8407 54.9806 70.4967 55.2454 70.2033C55.5102 69.9099 55.8316 69.6732 56.1904 69.5073C56.5491 69.3414 56.9377 69.2499 57.3328 69.2382C57.7279 69.2266 58.1212 69.295 58.4891 69.4394C58.857 69.5838 59.1919 69.8012 59.4736 70.0784C59.7552 70.3557 59.9779 70.6871 60.128 71.0527C60.2782 71.4183 60.3528 71.8105 60.3473 72.2057C60.3419 72.6009 60.2565 72.9909 60.0963 73.3522L56.6701 82.1373C56.4513 82.6869 56.0712 83.1572 55.5798 83.4866C55.0885 83.8159 54.5089 83.9887 53.9175 83.9822Z" stroke="white" stroke-width="5" mask="url(#path-1-inside-1)"/>
<path d="M83.1425 134.848C82.576 134.844 82.0227 134.676 81.5497 134.364C81.0767 134.052 80.7043 133.61 80.4777 133.091L76.4366 123.808C76.2584 123.453 76.1544 123.065 76.131 122.668C76.1075 122.271 76.1652 121.873 76.3003 121.5C76.4355 121.126 76.6454 120.783 76.9172 120.493C77.189 120.203 77.517 119.971 77.8813 119.812C78.2455 119.653 78.6384 119.569 79.0359 119.567C79.4335 119.564 79.8274 119.643 80.1936 119.798C80.5598 119.952 80.8907 120.18 81.1661 120.467C81.4415 120.753 81.6556 121.093 81.7955 121.465L85.8366 130.748C86.1389 131.463 86.1452 132.268 85.8542 132.987C85.5632 133.707 84.9987 134.281 84.2846 134.584C83.9275 134.754 83.5378 134.844 83.1425 134.848Z" stroke="white" stroke-width="5" mask="url(#path-1-inside-1)"/>
<path d="M98.1943 151.657C97.6588 151.662 97.1321 151.52 96.6716 151.247C96.3418 151.046 96.055 150.781 95.8278 150.469C95.6005 150.157 95.4373 149.803 95.3475 149.427C95.2577 149.052 95.243 148.662 95.3044 148.281C95.3658 147.899 95.502 147.534 95.7052 147.206L101.006 138.596C101.207 138.267 101.472 137.982 101.784 137.755C102.097 137.529 102.451 137.366 102.826 137.276C103.201 137.186 103.59 137.171 103.972 137.232C104.353 137.293 104.718 137.428 105.047 137.63C105.375 137.832 105.661 138.096 105.888 138.409C106.114 138.721 106.277 139.075 106.367 139.45C106.457 139.825 106.471 140.215 106.411 140.596C106.35 140.977 106.215 141.342 106.013 141.671L100.683 150.28C100.42 150.702 100.053 151.05 99.6172 151.291C99.1817 151.532 98.692 151.658 98.1943 151.657Z" stroke="white" stroke-width="5" mask="url(#path-1-inside-1)"/>
<path d="M98.1357 109.166C97.7661 109.155 97.4005 109.086 97.0522 108.961L87.6522 105.242C87.2784 105.114 86.9344 104.911 86.641 104.646C86.3476 104.381 86.1108 104.06 85.945 103.701C85.7791 103.343 85.6876 102.954 85.6759 102.559C85.6643 102.164 85.7327 101.77 85.8771 101.403C86.0215 101.035 86.2389 100.7 86.5161 100.418C86.7934 100.136 87.1248 99.9138 87.4904 99.7636C87.856 99.6135 88.2482 99.5389 88.6434 99.5443C89.0386 99.5498 89.4286 99.6351 89.7899 99.7953L99.2192 103.485C99.8743 103.722 100.424 104.184 100.768 104.79C101.113 105.395 101.231 106.103 101.1 106.788C100.97 107.472 100.6 108.087 100.056 108.523C99.513 108.959 98.832 109.187 98.1357 109.166Z" stroke="white" stroke-width="5" mask="url(#path-1-inside-1)"/>
<path d="M92.1912 84.5971C89.9659 84.6029 87.7889 83.9484 85.9359 82.7163C84.0828 81.4842 82.637 79.73 81.7814 77.6758C80.9258 75.6216 80.6989 73.3597 81.1295 71.1765C81.56 68.9932 82.6287 66.9869 84.2002 65.4113C85.7716 63.8357 87.7752 62.7618 89.9573 62.3256C92.1394 61.8893 94.4019 62.1103 96.4583 62.9605C98.5148 63.8108 100.273 65.252 101.51 67.1019C102.747 68.9517 103.407 71.127 103.407 73.3522C103.407 76.3295 102.226 79.1853 100.124 81.2933C98.0211 83.4012 95.1684 84.5894 92.1912 84.5971ZM92.1912 67.9933C91.123 67.9875 90.0772 68.2994 89.1867 68.8892C88.2961 69.479 87.601 70.3202 87.1895 71.306C86.7781 72.2917 86.6689 73.3775 86.8759 74.4255C87.0829 75.4734 87.5966 76.4362 88.3519 77.1915C89.1072 77.9468 90.07 78.4605 91.1179 78.6675C92.1659 78.8745 93.2517 78.7653 94.2374 78.3539C95.2232 77.9424 96.0644 77.2473 96.6542 76.3567C97.244 75.4662 97.5558 74.4204 97.5501 73.3522C97.5424 71.9333 96.9753 70.5747 95.972 69.5714C94.9687 68.5681 93.6101 68.001 92.1912 67.9933Z" stroke="white" stroke-width="5" mask="url(#path-1-inside-1)"/>
<path d="M113.773 132.769C111.549 132.769 109.375 132.109 107.526 130.874C105.677 129.638 104.235 127.882 103.384 125.827C102.533 123.772 102.31 121.511 102.744 119.33C103.178 117.149 104.249 115.145 105.822 113.572C107.394 112 109.398 110.929 111.579 110.495C113.761 110.061 116.022 110.284 118.076 111.135C120.131 111.986 121.887 113.427 123.123 115.276C124.359 117.126 125.018 119.3 125.018 121.524C125.018 124.506 123.833 127.366 121.725 129.475C119.616 131.584 116.756 132.769 113.773 132.769ZM113.773 116.165C112.706 116.165 111.663 116.482 110.777 117.075C109.89 117.668 109.199 118.512 108.792 119.498C108.385 120.484 108.28 121.569 108.491 122.615C108.701 123.661 109.217 124.621 109.974 125.373C110.73 126.126 111.693 126.637 112.74 126.841C113.787 127.046 114.871 126.935 115.856 126.523C116.84 126.11 117.679 125.415 118.268 124.525C118.856 123.635 119.167 122.591 119.161 121.524C119.161 120.818 119.022 120.118 118.751 119.466C118.48 118.814 118.082 118.222 117.581 117.724C117.081 117.226 116.486 116.832 115.833 116.564C115.179 116.297 114.479 116.161 113.773 116.165Z" stroke="white" stroke-width="5" mask="url(#path-1-inside-1)"/>
</g>
</svg>
