<svg width="21" height="15" viewBox="0 0 21 15" fill="none" xmlns="http://www.w3.org/2000/svg">
<path fill-rule="evenodd" clip-rule="evenodd" d="M20.5943 12.476C20.5943 12.476 18.8821 13.518 18.6209 13.3894L10.515 8.42496L7.744 10.8152C7.83533 12.0244 6.82418 13.455 5.12864 14.3298C4.29631 14.762 3.39194 15 2.58405 15C1.50858 15 0.681388 14.5858 0.317323 13.8641C-0.345199 12.557 0.730273 10.7123 2.76029 9.65995C3.59262 9.22899 4.497 8.99099 5.30617 8.99099C5.90952 8.99099 6.42024 9.13379 6.83062 9.37436L8.86192 7.40995L6.90266 5.50729C6.48585 5.77744 5.95326 5.93825 5.31518 5.93825C4.506 5.93825 3.60677 5.70154 2.77444 5.26801C0.768867 4.22341 -0.278303 2.39666 0.391937 1.10763C0.758575 0.405231 1.57804 0 2.63808 0C3.44597 0 4.34777 0.239279 5.17882 0.672812C6.79331 1.51415 7.76973 2.85849 7.744 4.02401L10.515 6.39623L18.6209 1.43053C18.8821 1.30317 20.5943 2.3452 20.5943 2.3452L12.1964 7.40995L20.5943 12.476ZM6.33147 10.7586C6.23499 10.5656 6.03945 10.4292 5.79374 10.3405C5.1711 10.1128 4.17924 10.2118 3.28388 10.675C1.98585 11.3465 1.19468 12.521 1.55617 13.2389C1.73756 13.5952 2.19554 13.801 2.81561 13.801C3.3765 13.801 4.01072 13.6299 4.60635 13.3225C5.53645 12.8426 6.1964 12.1042 6.3675 11.4571C6.43439 11.2024 6.4331 10.9618 6.33147 10.7586ZM4.66424 1.63894C3.40094 0.981561 1.92153 1.02916 1.56518 1.71226C1.18825 2.43525 1.97684 3.62393 3.28902 4.30703C3.89237 4.62093 4.54074 4.7946 5.11321 4.7946C5.41038 4.7946 5.67153 4.74571 5.8825 4.65695C6.11406 4.56175 6.28902 4.41895 6.38551 4.23499C6.51029 3.99442 6.49743 3.7024 6.38936 3.39751C6.17067 2.77487 5.53774 2.09563 4.66424 1.63894Z" fill="#FFA101"/>
</svg>
