<svg width="22" height="15" viewBox="0 0 22 15" fill="none" xmlns="http://www.w3.org/2000/svg">
<path fill-rule="evenodd" clip-rule="evenodd" d="M0.954884 12.476C0.954884 12.476 2.66715 13.518 2.9283 13.3894L11.0342 8.42496L13.8052 10.8152C13.7139 12.0244 14.725 13.455 16.4206 14.3298C17.2529 14.762 18.1573 15 18.9652 15C20.0406 15 20.8678 14.5858 21.2319 13.8641C21.8944 12.557 20.819 10.7123 18.7889 9.65995C17.9566 9.22899 17.0522 8.99099 16.2431 8.99099C15.6397 8.99099 15.129 9.13379 14.7186 9.37436L12.6873 7.40995L14.6466 5.50729C15.0634 5.77744 15.596 5.93825 16.234 5.93825C17.0432 5.93825 17.9425 5.70154 18.7748 5.26801C20.7804 4.22341 21.8275 2.39666 21.1573 1.10763C20.7906 0.405231 19.9712 0 18.9111 0C18.1033 0 17.2015 0.239279 16.3704 0.672812C14.7559 1.51415 13.7795 2.85849 13.8052 4.02401L11.0342 6.39623L2.9283 1.43053C2.66715 1.30317 0.954884 2.3452 0.954884 2.3452L9.35283 7.40995L0.954884 12.476ZM15.2178 10.7586C15.3142 10.5656 15.5098 10.4292 15.7555 10.3405C16.3781 10.1128 17.37 10.2118 18.2653 10.675C19.5634 11.3465 20.3545 12.521 19.9931 13.2389C19.8117 13.5952 19.3537 13.801 18.7336 13.801C18.1727 13.801 17.5385 13.6299 16.9429 13.3225C16.0128 12.8426 15.3528 12.1042 15.1817 11.4571C15.1148 11.2024 15.1161 10.9618 15.2178 10.7586ZM16.885 1.63894C18.1483 0.981561 19.6277 1.02916 19.984 1.71226C20.361 2.43525 19.5724 3.62393 18.2602 4.30703C17.6569 4.62093 17.0085 4.7946 16.436 4.7946C16.1388 4.7946 15.8777 4.74571 15.6667 4.65695C15.4352 4.56175 15.2602 4.41895 15.1637 4.23499C15.0389 3.99442 15.0518 3.7024 15.1599 3.39751C15.3786 2.77487 16.0115 2.09563 16.885 1.63894Z" fill="#FFA101"/>
</svg>
