<svg width="19" height="12" viewBox="0 0 19 12" fill="none" xmlns="http://www.w3.org/2000/svg">
<path fill-rule="evenodd" clip-rule="evenodd" d="M0.194702 6C0.194702 5.82321 0.26493 5.65367 0.389937 5.52866C0.514944 5.40366 0.684489 5.33343 0.861275 5.33343H16.5831L12.3877 1.13935C12.2625 1.01418 12.1922 0.844425 12.1922 0.667415C12.1922 0.490406 12.2625 0.320646 12.3877 0.195481C12.5128 0.0703166 12.6826 4.17079e-09 12.8596 0C13.0366 -4.17018e-09 13.2064 0.0703166 13.3315 0.195481L18.6641 5.52807C18.7262 5.58998 18.7754 5.66354 18.809 5.74452C18.8426 5.82551 18.8599 5.91232 18.8599 6C18.8599 6.08768 18.8426 6.17449 18.809 6.25548C18.7754 6.33646 18.7262 6.41002 18.6641 6.47193L13.3315 11.8045C13.2064 11.9297 13.0366 12 12.8596 12C12.6826 12 12.5128 11.9297 12.3877 11.8045C12.2625 11.6794 12.1922 11.5096 12.1922 11.3326C12.1922 11.1556 12.2625 10.9858 12.3877 10.8607L16.5831 6.66657H0.861275C0.684489 6.66657 0.514944 6.59635 0.389937 6.47134C0.26493 6.34633 0.194702 6.17679 0.194702 6Z" fill="#FFA101"/>
</svg>
