<svg width="23" height="14" viewBox="0 0 23 14" fill="none" xmlns="http://www.w3.org/2000/svg">
<path d="M9.96537 13.3619L0.990076 3.1028C-0.0691438 1.89574 0.791706 6.88129e-07 2.39925 6.88129e-07H20.3498C20.7096 -0.000307771 21.0618 0.103092 21.3644 0.297818C21.6669 0.492545 21.9068 0.770343 22.0555 1.09794C22.2042 1.42555 22.2553 1.78907 22.2028 2.14497C22.1502 2.50088 21.9961 2.83408 21.759 3.10467L12.7837 13.36C12.6081 13.561 12.3914 13.7221 12.1484 13.8325C11.9053 13.9429 11.6415 14 11.3745 14C11.1076 14 10.8437 13.9429 10.6007 13.8325C10.3576 13.7221 10.141 13.561 9.96537 13.36V13.3619Z" fill="#FFA101"/>
</svg>
