<svg width="16" height="16" viewBox="0 0 16 16" fill="none" xmlns="http://www.w3.org/2000/svg">
<path d="M15.9987 11.6293C15.9771 5.34667 10.6403 0.0213334 4.34453 0.00133336L3.95627 0L0 16L16 12.0168L15.9987 11.6293ZM8.5896 13.3525C8.36347 12.7469 7.85413 12.2373 7.08853 12.4315C6.45627 12.5915 6.03013 13.3277 6.2 13.9472L0.6768 15.3221L3.89973 2.28693C8.91573 3.048 12.9483 7.07947 13.7109 12.0776L8.5896 13.3525Z" fill="#FFDFA9"/>
<path d="M3.4464 10.2939C3.64798 10.2946 3.84769 10.2554 4.03402 10.1785C4.22035 10.1016 4.38961 9.98853 4.532 9.84586C4.6746 9.70381 4.78766 9.53494 4.86469 9.34898C4.94172 9.16303 4.98118 8.96367 4.9808 8.76239C4.98116 8.56124 4.94169 8.36201 4.86466 8.17619C4.78763 7.99036 4.67457 7.82163 4.532 7.67973C4.41707 7.56533 4.2152 7.56479 4.1008 7.67973C4.04389 7.73685 4.01196 7.81422 4.01201 7.89485C4.01206 7.97548 4.04409 8.05281 4.10107 8.10986C4.2752 8.28346 4.37147 8.516 4.37147 8.76266C4.37147 9.00933 4.276 9.24159 4.1016 9.41519C3.75174 9.76346 3.14107 9.76346 2.79254 9.41573C2.73468 9.35994 2.65744 9.32876 2.57707 9.32876C2.4967 9.32876 2.41946 9.35994 2.3616 9.41573C2.33338 9.44393 2.31099 9.47743 2.29572 9.5143C2.28046 9.55116 2.27261 9.59068 2.27264 9.63058C2.27266 9.67049 2.28056 9.70999 2.29587 9.74684C2.31118 9.78369 2.33361 9.81716 2.36187 9.84533C2.50402 9.98807 2.67306 10.1012 2.85922 10.1782C3.04538 10.2552 3.24496 10.2945 3.4464 10.2939Z" fill="#FFDFA9"/>
<path d="M7.87228 6.18187C7.82741 6.37121 7.82623 6.56828 7.86882 6.75814C7.92323 6.99913 8.04429 7.21998 8.21818 7.39547C8.39208 7.57097 8.6118 7.69405 8.85228 7.75067C8.92356 7.76699 8.99839 7.75444 9.06044 7.71577C9.1225 7.6771 9.16673 7.61545 9.18348 7.54427C9.19767 7.47327 9.18416 7.39952 9.14574 7.33815C9.10732 7.27677 9.04688 7.2324 8.97682 7.21414C8.58455 7.12321 8.31682 6.70187 8.40962 6.30614C8.45534 6.11052 8.57687 5.94107 8.74748 5.83501C8.91809 5.72895 9.12383 5.69497 9.31948 5.74054C9.39122 5.75707 9.46562 5.74507 9.52775 5.70587C9.59015 5.66694 9.63415 5.60587 9.65015 5.53387C9.65948 5.49387 9.66002 5.45254 9.65122 5.41227C9.63967 5.36168 9.6142 5.31534 9.57767 5.27848C9.54115 5.24163 9.49503 5.21574 9.44455 5.20374C9.27698 5.16431 9.10324 5.1586 8.93344 5.18694C8.76364 5.21528 8.60117 5.2771 8.45548 5.36881C8.30916 5.45883 8.18223 5.57709 8.0821 5.71668C7.98197 5.85628 7.91065 6.01442 7.87228 6.18187Z" fill="#FFDFA9"/>
<path d="M10.3048 10.8691C10.1266 10.8208 9.93988 10.8132 9.75839 10.847C9.52853 10.8897 9.31532 10.9963 9.14312 11.1544C8.97091 11.3126 8.84665 11.516 8.78453 11.7414C8.7757 11.7744 8.77347 11.8089 8.77797 11.8428C8.78247 11.8767 8.7936 11.9094 8.81074 11.9391C8.82787 11.9687 8.85067 11.9946 8.87784 12.0154C8.905 12.0362 8.936 12.0515 8.96906 12.0603C9.03578 12.0765 9.10618 12.0665 9.16572 12.0323C9.22526 11.9981 9.26941 11.9424 9.28906 11.8766C9.38853 11.5096 9.79679 11.2718 10.168 11.3726C10.2591 11.3968 10.3444 11.4388 10.4191 11.4963C10.4939 11.5537 10.5564 11.6254 10.6032 11.7072C10.6984 11.8731 10.724 12.0659 10.6741 12.2502C10.6625 12.2927 10.6619 12.3376 10.6725 12.3804C10.683 12.4233 10.7042 12.4628 10.7342 12.4952C10.7642 12.5276 10.8019 12.5518 10.8438 12.5656C10.8858 12.5793 10.9305 12.5822 10.9739 12.5739C11.0223 12.5649 11.0672 12.5425 11.1035 12.5092C11.1398 12.4759 11.166 12.4331 11.1792 12.3856C11.2218 12.2288 11.233 12.0651 11.212 11.9039C11.191 11.7428 11.1382 11.5874 11.0568 11.4467C10.9757 11.3056 10.8675 11.182 10.7385 11.0828C10.6094 10.9837 10.462 10.9111 10.3048 10.8691Z" fill="#FFDFA9"/>
<path d="M9.29334 8.94615C8.94747 7.93388 7.83707 7.38855 6.81014 7.72801C5.78374 8.06801 5.23067 9.16481 5.57547 10.176C5.92054 11.1899 7.03147 11.7341 8.0592 11.3941C9.084 11.0549 9.63707 9.95815 9.29334 8.94615Z" fill="#FFDFA9"/>
<path d="M10.1333 9.87358C10.3405 10.4813 11.0083 10.809 11.6267 10.6048C12.2427 10.4 12.5742 9.74184 12.3683 9.13358C12.1606 8.52584 11.4923 8.19811 10.8765 8.40131C10.2595 8.60611 9.92722 9.26451 10.1333 9.87358Z" fill="#FFDFA9"/>
<path d="M4.24935 5.70559C4.53255 6.53413 5.44135 6.97973 6.28135 6.70106C7.11948 6.42319 7.57228 5.52586 7.29095 4.69839C7.00748 3.87146 6.09948 3.42586 5.25948 3.70346C4.42162 3.98079 3.96882 4.87813 4.24935 5.70559Z" fill="#FFDFA9"/>
<path d="M4.96239 11.6219C4.67012 10.7696 3.73412 10.3101 2.86959 10.5947C2.00719 10.8819 1.54132 11.8048 1.83066 12.6565C2.12052 13.5115 3.05572 13.9693 3.92266 13.6829C4.78559 13.3963 5.25119 12.4733 4.96239 11.6219Z" fill="#FFDFA9"/>
</svg>
