<svg width="120" height="120" viewBox="0 0 120 120" fill="none" xmlns="http://www.w3.org/2000/svg">
<path d="M88.0001 18L78.3401 106H39.66L30 18H88.0001Z" fill="#1566C0"/>
<path d="M82.0001 18L72.3401 106H39.66L30 18H82.0001Z" fill="#FFA101"/>
<path d="M76.6661 86V104H67.4861C66.9618 104.004 66.4598 104.212 66.0862 104.58L56.6662 114L47.2462 104.58C46.8726 104.212 46.3706 104.004 45.8463 104H12.6663V86H76.6661V86Z" fill="#2E7D32"/>
<path d="M70.6661 86V104H61.4861C60.9618 104.004 60.4598 104.212 60.0862 104.58L50.6662 114L41.2462 104.58C40.8726 104.212 40.3706 104.004 39.8463 104H12.6663V86H70.6661V86Z" fill="#4CAF50"/>
<path d="M82.6461 83.5602C82.7684 85.2228 82.1933 86.8613 81.0589 88.0829C79.9245 89.3045 78.3331 89.9992 76.666 90.0001H13.0002C9.7693 90.0692 7.02336 87.6535 6.68024 84.44C6.55789 82.7764 7.13375 81.137 8.2693 79.9152C9.40508 78.6934 10.9981 77.9994 12.6662 78.0001H76.3262C76.4398 77.9968 76.5538 78.0034 76.6663 78.02C79.7663 78.1065 82.3234 80.4756 82.6461 83.5602Z" fill="#4E342E"/>
<path d="M75.9821 81.5599C76.1044 83.2228 75.529 84.8616 74.3944 86.0833C73.2595 87.3051 71.6677 87.9994 70.0001 87.9998H12.342C9.11112 88.069 6.36518 85.6533 6.02205 82.4398C5.89971 80.7776 6.47463 79.1393 7.60854 77.9177C8.74244 76.6962 10.3334 76.0012 12 75.9996H69.66C69.7737 75.9963 69.8876 76.0029 70.0001 76.0195C73.1011 76.1055 75.6593 78.4746 75.9821 81.5599Z" fill="#795548"/>
<path d="M76.0001 62.0002V76.0203C75.8876 76.0037 75.7737 75.9971 75.66 76.0004H46.8199C46.2956 76.0046 45.7936 76.2125 45.42 76.5805L34.0001 88.0004L22.5802 76.5805C22.2066 76.2125 21.7045 76.0046 21.1802 76.0004H12V62.0005H76.0001V62.0002Z" fill="#FDD834"/>
<path d="M70.0001 63.0002V77.0203C69.8876 77.0037 69.7737 76.9971 69.66 77.0004H40.8199C40.2956 77.0046 39.7936 77.2125 39.42 77.5805L31.0001 86.0004L22.5802 77.5805C22.2066 77.2125 21.7045 77.0046 21.1802 77.0004H12V63.0002H70.0001Z" fill="#FFEB3A"/>
<path d="M82.6659 64.0002V66.0001C82.6659 67.1047 81.7706 68 80.6659 68H8.66594C7.56133 68 6.66602 67.1045 6.66602 66.0001V64.0002C6.66602 52.9545 15.6203 44.0002 26.6659 44.0002H62.6659C73.7116 44 82.6659 52.9543 82.6659 64.0002Z" fill="#F57C00"/>
<path d="M74.6659 64.0002V66.0001C74.6659 67.1047 73.7706 68 72.666 68H8.66594C7.56133 68 6.66602 67.1045 6.66602 66.0001V64.0002C6.66602 52.9545 15.6203 44.0002 26.6659 44.0002H54.666C65.7116 44 74.6659 52.9543 74.6659 64.0002Z" fill="#FFA101"/>
<path d="M74.6659 102V108C74.6659 114.627 69.2934 120 62.6659 120H18.666C12.0386 120 6.66602 114.627 6.66602 108V102C6.66602 100.895 7.56156 100 8.66594 100H45.846C46.3703 100.004 46.8723 100.212 47.2459 100.58L56.6659 110L66.0859 100.58C66.4595 100.212 66.9616 100.004 67.4859 100H72.6658C73.7704 100 74.6659 100.895 74.6659 102Z" fill="#FFA101"/>
<path d="M86 6.00008V14H32V6.00008C32.0066 3.79367 33.7937 2.00656 36.0001 2H82.0001C84.2066 2.00656 85.9934 3.79367 86 6.00008Z" fill="#CFD8DC"/>
<path d="M92 14.0001V18.0002C92 19.1048 91.1047 20.0001 90.0001 20.0001H28.0002C26.8956 20.0001 26.0002 19.1048 26.0002 18.0002V14.0001C26.0068 11.7937 27.7939 10.0066 30.0003 10H88.0004C90.2066 10.0068 91.9934 11.7937 92 14.0001Z" fill="#CFD8DC"/>
<path d="M80 6.00008V14H26C26.0066 11.7936 27.7937 10.0065 30.0001 9.99992H32V6.00008C32.0066 3.79367 33.7937 2.00656 36.0001 2H76.0001C78.2066 2.00656 79.9934 3.79367 80 6.00008Z" fill="#F4F4F4"/>
<path d="M86 14.0001V18.0002C86 19.1048 85.1047 20.0001 84.0001 20.0001H28.0002C26.8956 20.0001 26.0002 19.1048 26.0002 18.0002V14.0001C26.0068 11.7937 27.7939 10.0066 30.0003 10H82.0004C84.2066 10.0068 85.9935 11.7937 86 14.0001Z" fill="#F4F4F4"/>
<path d="M113.98 67.8002L106.28 118H61.7001L54.0201 67.8204C53.8924 67.0282 54.3848 66.2676 55.1601 66.0604C55.2963 66.0197 55.4379 65.9993 55.5801 66.0004H57.3002C57.5402 66.0004 57.7603 66.0204 58.0003 66.0405L102.16 66.4204L107.54 66.4605H108C108.868 66.1558 109.781 66.0004 110.7 66.0004H112.4C112.861 65.9932 113.302 66.1886 113.606 66.5353C113.91 66.8815 114.047 67.3441 113.98 67.8002Z" fill="#C52828"/>
<path d="M107.98 67.8001L100.28 118H61.7001L54.0201 67.8202C53.8924 67.028 54.3848 66.2675 55.1601 66.0603L102 66.4604C102.051 66.4377 102.105 66.4243 102.16 66.4203C102.977 66.1386 103.836 65.9966 104.7 66.0003H106.4C106.825 66.0034 107.232 66.1679 107.54 66.4604C107.895 66.8096 108.058 67.3086 107.98 67.8001Z" fill="#F44335"/>
<path d="M88.0179 83.02C84.6432 83.5633 81.1929 83.4135 77.8779 82.5801L78 82V47.56C78.0012 46.6989 78.6989 46.0012 79.56 46H86.4401C87.3012 46.0012 87.999 46.6989 88.0001 47.56V82.8801L88.0179 83.02Z" fill="#FFB301"/>
<path d="M68.0001 57.9998V76.4997C66.5894 74.8274 65.4611 72.9358 64.66 70.8998C63.5357 68.1522 60.9595 66.2725 58 66.0398V59.5598C58.0012 58.6987 58.6989 58.0009 59.56 57.9998H68.0001V57.9998Z" fill="#FFB301"/>
<path d="M78.0001 49.4202V81.4201L77.8801 82.0002H77.8602C74.0061 81.0842 70.5491 78.9526 68.0002 75.9203V50.9802C68.0014 50.1191 68.6992 49.4213 69.5602 49.4202H78.0001V49.4202Z" fill="#FDD834"/>
<path d="M98.2002 78.32C95.3472 80.8604 91.8041 82.4961 88.0202 83.0199L88.0002 82.88V50H96.0002C97.1048 50 98.0001 50.8955 98.0001 51.9999V78.08L98.2002 78.32Z" fill="#FDD834"/>
<path d="M108 57.56V66.4599C105.88 67.2001 104.182 68.8182 103.34 70.8999C102.234 73.7382 100.481 76.2791 98.2201 78.32H98.2002L98.0002 78.08V56H106.44C107.301 56.0012 107.999 56.6989 108 57.56Z" fill="#FFB301"/>
<path d="M91.9999 101C91.9999 105.971 87.9705 110 82.9999 110C81.9773 110.003 80.9618 109.827 79.9999 109.48C76.4116 108.204 74.0149 104.808 74.0149 101C74.0149 97.1919 76.4118 93.7958 79.9999 92.5201C80.9618 92.173 81.9773 91.997 82.9999 92C87.9705 92 91.9999 96.0297 91.9999 101Z" fill="#CFD8DC"/>
<path d="M80 109.48C83.3137 109.48 86 105.683 86 101C86 96.3166 83.3137 92.52 80 92.52C76.6863 92.52 74 96.3166 74 101C74 105.683 76.6863 109.48 80 109.48Z" fill="#F4F4F4"/>
<path d="M25.9999 54.0001H27.9998C29.1045 54.0001 29.9998 53.1045 29.9998 52.0002C29.9998 50.8956 29.1042 50.0002 27.9998 50.0002H25.9999C24.8953 50.0002 24 50.8958 24 52.0002C24 53.1045 24.8955 54.0001 25.9999 54.0001Z" fill="#1E1D23"/>
<path d="M37.9999 58.0001H39.9998C41.1045 58.0001 41.9998 57.1045 41.9998 56.0002C41.9998 54.8956 41.1042 54.0002 39.9998 54.0002H37.9999C36.8953 54.0002 36 54.8958 36 56.0002C36 57.1045 36.8955 58.0001 37.9999 58.0001Z" fill="#1E1D23"/>
<path d="M49.9999 54.0001H51.9998C53.1045 54.0001 53.9998 53.1045 53.9998 52.0002C53.9998 50.8956 53.1042 50.0002 51.9998 50.0002H49.9999C48.8953 50.0002 48 50.8958 48 52.0002C48 53.1045 48.8955 54.0001 49.9999 54.0001Z" fill="#1E1D23"/>
<path d="M118 116H108.612L115.962 68.0859C116.112 67.0617 115.807 66.023 115.128 65.242C114.443 64.4512 113.447 63.9977 112.4 64.0001H110.686C110.45 64.0001 110.224 64.0362 109.992 64.05V57.5599C109.991 55.5973 108.403 54.0054 106.44 54H100.001V49.9999C100.001 48.8953 99.1052 48 98.0006 48H90V47.5601C89.9965 45.8951 88.8405 44.4544 87.2161 44.0902L89.7802 22.0001H92.0002C93.1048 22.0001 94.0001 21.1045 94.0001 20.0002V14.0002C94.0001 10.6866 91.3137 8.00016 88.0001 8.00016V6C88.0001 2.68641 85.3137 0 82.0001 0H36C32.6864 0 30 2.68641 30 6V7.99992C26.6864 7.99992 24 10.6863 24 13.9999V19.9999C24 21.1045 24.8955 21.9998 25.9999 21.9998H28.2199L30.3138 39.9998H25.9999C13.8555 40.0141 4.01414 49.8555 3.99984 61.9999V63.9998C3.99984 66.2091 5.7907 67.9999 7.99992 67.9999H9.99984V74.284C6.25289 75.2231 3.72867 78.7266 4.02375 82.578C4.32492 85.9582 6.71625 88.785 9.99984 89.6421V96H7.99992C5.7907 96 3.99984 97.7909 3.99984 100V106C3.99937 109.766 5.52141 113.373 8.21977 116H1.99992C0.895313 116 0 116.896 0 118C0 119.105 0.895547 120 1.99992 120H118C119.104 120 120 119.105 120 118C120 116.895 119.105 116 118 116ZM111.928 67.9999L104.566 116H63.4179L56.07 67.9999L57.292 68.0002C59.6958 67.984 61.8715 69.4209 62.8001 71.6381C63.6792 73.8649 64.9123 75.9349 66.4521 77.7682C66.5229 77.8673 66.6033 77.959 66.6921 78.0422C71.1045 82.9052 77.438 85.5736 84 85.3343C94.0001 85.3343 101.72 80.3344 105.2 71.6363C106.127 69.4245 108.296 67.9894 110.694 68.0002L111.928 67.9999ZM85.9999 48V81.2121C85.3378 81.2641 84.6839 81.3342 84 81.3342C82.6584 81.3255 81.3204 81.2018 79.9999 80.9641V48H85.9999ZM76.0001 52.0001V79.86C73.7128 78.9448 71.6618 77.5249 70.0001 75.7059V52.0001H76.0001ZM66 69.1139C64.7285 66.784 62.5615 65.0735 60 64.3779V60H66V69.1139ZM54.78 85.9999H38.8261L46.826 78H53.562L54.78 85.9999ZM106 58.0001V65.168C103.943 66.2339 102.337 68.0025 101.474 70.152C101.065 71.1591 100.572 72.1298 100 73.054V58.0001H106V58.0001ZM96 52.0001V76.0001V76.02V77.5359C94.2183 78.927 92.1792 79.9519 90 80.5519V52.0001H96ZM34.0001 6C34.0001 4.89539 34.8954 4.00008 36 4.00008H82.0001C83.1047 4.00008 84 4.89563 84 6V7.99992H34.0001V6ZM28.0001 13.9999C28.0001 12.8953 28.8956 12 30 12H88.0001C89.1047 12 90 12.8955 90 13.9999V18H28.0001V13.9999ZM32.246 22.0001H85.7541L83.2001 44.0002H79.56C78.3694 44.0011 77.258 44.5971 76.598 45.588C72.8299 42.1969 67.9952 40.2295 62.9299 40.0261C62.6198 40.0001 62.31 40.0001 61.9999 40.0001H34.3399L32.246 22.0001ZM7.99992 61.9999C8.01211 52.0638 16.0638 44.0121 25.9999 43.9999H61.9999C62.2099 43.9999 62.4178 43.9999 62.704 44.018C66.5653 44.1673 70.2741 45.5646 73.2741 48H69.5602C67.5945 48.0012 66.0012 49.5942 66.0002 51.5599V55.9999H59.5603C57.5946 56.0011 56.0013 57.5941 56.0004 59.5598V63.9998H8.00039V61.9999H7.99992ZM52.0359 67.9999C52.0359 68.0379 52.0359 68.0759 52.0359 68.1138L52.9439 73.9999H46.8199C45.7629 74.0006 44.749 74.4199 43.9999 75.1659L33.9998 85.166L24 75.1659C23.2509 74.4199 22.237 74.0006 21.18 73.9999H13.9999V67.9999H52.0359ZM8.01398 82.29C7.91953 81.1308 8.34445 79.9894 9.17391 79.174C9.92086 78.4202 10.9388 77.9974 12 78H21.1659L29.1659 85.9999H12.3401C10.159 86.0585 8.28867 84.4545 8.01398 82.29ZM13.9999 90H55.3999L57.4959 103.684L55.9999 105.172L48 97.1721C47.2519 96.4238 46.238 96.0023 45.18 96H13.9999V90ZM7.99992 106V100H12H45.162L54.582 109.42C55.3629 110.201 56.629 110.201 57.4099 109.42L58.234 108.596L59.37 115.996H18C12.4814 115.989 8.00883 111.519 7.99992 106Z" fill="#1E1D23"/>
<path d="M82.9998 90C78.5507 90 74.5399 92.6801 72.8371 96.7905C71.1346 100.901 72.0756 105.632 75.2217 108.778C78.3677 111.924 83.099 112.865 87.2092 111.163C91.3197 109.46 93.9998 105.449 93.9998 101C93.9932 94.9277 89.0723 90.0066 82.9998 90ZM82.9998 108C79.1338 108 75.9998 104.866 75.9998 101C75.9998 97.1339 79.1338 93.9998 82.9998 93.9998C86.8659 93.9998 89.9999 97.1339 89.9999 101C89.9999 104.866 86.8659 108 82.9998 108Z" fill="#1E1D23"/>
</svg>
