<svg width="120" height="120" viewBox="0 0 120 120" fill="none" xmlns="http://www.w3.org/2000/svg">
<g clip-path="url(#clip0)">
<path d="M60.0002 79.8388C70.957 79.8388 79.8392 70.9565 79.8392 59.9997C79.8392 49.0429 70.957 40.1606 60.0002 40.1606C49.0434 40.1606 40.1611 49.0429 40.1611 59.9997C40.1611 70.9565 49.0434 79.8388 60.0002 79.8388Z" fill="#FFA101"/>
<path d="M84.9633 91.5662L60.7846 91.6046C57.9214 91.5533 55.4705 93.6472 55.0744 96.4834C54.6929 99.2139 56.3335 101.822 58.9597 102.662L84.0678 99.5901L84.9633 91.5662Z" fill="#EAAC9D"/>
<path d="M77.7338 96.3687L53.5551 96.4071C50.6919 96.3558 48.241 98.4497 47.8449 101.286C47.4634 104.016 49.104 106.625 51.7302 107.464L76.8383 104.393L77.7338 96.3687Z" fill="#FFCBBE"/>
<path d="M44.3024 109.948C44.9875 111.125 46.0935 112.053 47.4724 112.493L52.968 114.248L64.2463 117.851C66.1234 118.451 68.151 118.358 69.9639 117.59L103.221 103.51L103.126 85.1535C103.128 85.0195 103.127 84.8856 103.124 84.7506C103.124 84.7288 103.123 84.7077 103.124 84.6873L103.118 83.7646C103.118 83.7498 103.119 83.7348 103.119 83.7222L103.063 73.0655L92.5269 71.712C87.615 71.0818 82.6437 71.3429 77.8493 72.4709C77.6458 72.5185 77.4431 72.5673 77.2422 72.6188C75.7996 72.9819 74.372 73.4237 72.9698 73.9433L71.5806 74.4573C68.7109 75.522 67.2062 78.6758 68.1861 81.5748C68.3094 81.9397 68.4674 82.2862 68.6565 82.611C69.5631 84.1682 71.1754 85.222 73.0129 85.3968L84.3992 86.4756L64.426 101.707L49.2982 101.436C46.4355 101.385 43.9851 103.479 43.589 106.315C43.4069 107.613 43.6823 108.883 44.3024 109.948V109.948Z" fill="#FFDDCE"/>
<path d="M52.9678 114.248L64.246 117.851C66.1231 118.451 68.1507 118.358 69.9636 117.59L103.221 103.51L103.126 85.1536C102.983 106.431 59.1347 116.218 52.9678 114.248V114.248Z" fill="#FFCBBE"/>
<path d="M103.118 83.7649C103.116 84.0679 103.118 84.3743 103.123 84.6876L103.118 83.7649Z" fill="#FFCBBE"/>
<path d="M103.221 103.511L116.94 104.081L116.866 89.6033L116.783 73.6369L103.063 73.0659L103.153 90.4961L103.221 103.511Z" fill="#DB5B6F"/>
<path d="M103.221 103.51L116.94 104.081L116.866 89.6033C110.036 94.3308 103.153 90.496 103.153 90.496L103.221 103.51Z" fill="#FFA101"/>
<path d="M35.0366 28.433L59.2154 28.3946C62.0786 28.4459 64.5294 26.352 64.9255 23.5158C65.3071 20.7853 63.6665 18.1767 61.0403 17.3376L35.9319 20.4094L35.0366 28.433Z" fill="#EAAC9D"/>
<path d="M42.2661 23.6308L66.4449 23.5924C69.3081 23.6437 71.7589 21.5498 72.155 18.7136C72.5366 15.9831 70.896 13.3745 68.2698 12.5354L43.1614 15.6071L42.2661 23.6308Z" fill="#FFCBBE"/>
<path d="M75.6976 10.0513C75.0126 8.8745 73.9065 7.94636 72.5277 7.50644L67.032 5.75142L55.7538 2.14811C53.8767 1.54881 51.8491 1.64116 50.0362 2.40898L16.7791 16.4885L16.8742 34.8453C16.8721 34.9794 16.8737 35.1132 16.8759 35.2482C16.8759 35.27 16.8773 35.2911 16.8763 35.3115L16.8822 36.2342C16.8817 36.249 16.8812 36.264 16.8812 36.2767L16.937 46.9333L27.4732 48.2868C32.385 48.9171 37.3564 48.656 42.1508 47.5279C42.3543 47.4806 42.557 47.4316 42.7579 47.38C44.2004 47.017 45.628 46.5752 47.0303 46.0556L48.4195 45.5416C51.2892 44.4768 52.7939 41.323 51.8139 38.424C51.6907 38.0591 51.5327 37.7127 51.3435 37.3878C50.437 35.8306 48.8247 34.7769 46.9872 34.602L35.6009 33.5232L55.574 18.2922L70.7019 18.5629C73.5646 18.614 76.015 16.5199 76.4111 13.6839C76.593 12.3864 76.3178 11.1165 75.6976 10.0513V10.0513Z" fill="#FFDDCE"/>
<path d="M67.032 5.75118L55.7538 2.14787C53.8767 1.54857 51.8491 1.64091 50.0362 2.40873L16.7791 16.4885L16.8742 34.8453C17.0167 13.5684 60.8653 3.78077 67.032 5.75118Z" fill="#FFCBBE"/>
<path d="M16.8821 36.2343C16.884 35.9312 16.8821 35.6249 16.8762 35.3115L16.8821 36.2343Z" fill="#FFCBBE"/>
<path d="M16.7793 16.4887L3.05957 15.9177L3.13363 30.3959L3.21684 46.3623L16.9366 46.9333L16.847 29.5031L16.7793 16.4887Z" fill="#80B4FB"/>
<path d="M16.7792 16.4887L3.05957 15.9177L3.13363 30.3958C9.96379 25.6682 16.8469 29.503 16.8469 29.503L16.7792 16.4887Z" fill="#61A2F9"/>
<path d="M59.8316 75.8688C60.8026 75.8688 61.5894 75.0818 61.5894 74.111V72.5179C65.874 71.8326 68.4848 68.7639 68.9078 65.7381C69.3897 62.2911 67.1685 59.3267 63.249 58.1858C60.6758 57.4367 57.8213 56.5259 56.1577 55.4515C55.2429 54.8607 55.2964 53.8836 55.3617 53.4907C55.5244 52.5146 56.3178 51.3181 58.0564 50.8868C58.6829 50.7314 59.2705 50.6515 59.8166 50.6245C59.8215 50.6245 59.8264 50.6252 59.8313 50.6252C59.8923 50.6252 59.9523 50.6222 60.0116 50.6161C62.5691 50.5472 64.1478 51.6532 64.251 51.7278C65.0235 52.3048 66.118 52.1513 66.7021 51.3823C67.2892 50.6091 67.1385 49.5066 66.3653 48.9192C66.2605 48.8395 64.4828 47.5219 61.5889 47.1804V45.8897C61.5889 44.9189 60.8021 44.1318 59.8311 44.1318C58.8601 44.1318 58.0733 44.9189 58.0733 45.8897V47.2926C57.7906 47.3428 57.5033 47.4019 57.2096 47.4748C54.4153 48.168 52.3287 50.3025 51.8934 52.913C51.525 55.1239 52.4276 57.2281 54.2496 58.4049C55.8968 59.4692 58.2193 60.3835 62.2656 61.5617C64.51 62.2152 65.6617 63.56 65.4252 65.2518C65.1566 67.173 63.1452 69.1274 59.821 69.1457C57.0584 69.1623 55.9683 69.0595 53.6206 67.7945C52.7653 67.3337 51.6996 67.6534 51.2393 68.5082C50.7787 69.3627 51.0982 70.4289 51.953 70.8895C54.3603 72.1863 55.9322 72.5517 58.073 72.6379V74.1114C58.0737 75.0818 58.8605 75.8688 59.8316 75.8688V75.8688Z" fill="black"/>
<path d="M118.541 73.628C118.536 72.689 117.794 71.9196 116.856 71.8807L103.212 71.313L92.7507 69.9686C88.144 69.3768 83.4499 69.5491 78.899 70.4524C79.2801 69.764 79.6282 69.0564 79.9338 68.3259C80.3086 67.4303 79.8862 66.4005 78.9907 66.026C78.0944 65.6514 77.0653 66.0735 76.6907 66.9691C75.9466 68.7482 74.9273 70.3821 73.6649 71.8366C73.2274 71.9829 72.7919 72.1347 72.3592 72.2953L70.9701 72.8102C68.9973 73.5415 67.5238 75.004 66.7457 76.7778C64.6018 77.6403 62.3375 78.0814 60.001 78.0814C50.0308 78.0814 41.9195 69.97 41.9195 59.9999C41.9195 55.6295 43.4891 51.4444 46.341 48.1603C46.7768 48.0148 47.2111 47.8648 47.6418 47.7049L49.0312 47.1896C51.0021 46.459 52.4749 44.9979 53.2533 43.2253C55.3976 42.3602 57.6629 41.9177 60.0008 41.9177C69.9714 41.9177 78.0829 50.0293 78.0829 59.9999C78.0829 60.3079 78.0759 60.6022 78.0616 60.8748C78.0115 61.8444 78.757 62.6711 79.7266 62.721C79.7576 62.7224 79.7883 62.7233 79.8187 62.7233C80.748 62.7233 81.5243 61.9949 81.5728 61.0562C81.5899 60.7234 81.5986 60.3681 81.5986 59.9999C81.5986 48.0907 71.9097 38.4021 60.0008 38.4021C57.8813 38.4021 55.8103 38.7039 53.8142 39.3016C53.7513 38.8202 53.6402 38.3371 53.4788 37.8581C53.0175 36.4994 52.1812 35.3106 51.0553 34.4174C49.928 33.5289 48.5791 32.988 47.1543 32.8527L40.2397 32.1965L42.8852 30.1794L59.2037 30.1529C59.2414 30.1534 59.2784 30.1539 59.3159 30.1539C62.4348 30.1539 65.1852 28.1835 66.2575 25.3501L66.4318 25.3498C69.9151 25.4077 72.9409 23.0225 73.7524 19.7056C76.0596 18.7027 77.7848 16.5595 78.1518 13.931C78.1992 13.5966 78.2233 13.2485 78.2233 12.8967C78.2233 9.65598 76.1493 6.81674 73.0628 5.83142L56.2889 0.474265C54.0155 -0.253241 51.5519 -0.141209 49.3514 0.789736L33.1419 7.65229C32.248 8.03081 31.8298 9.06254 32.2086 9.95645C32.5871 10.8508 33.6195 11.2685 34.5125 10.89L50.7216 4.02742C52.1482 3.4239 53.7443 3.35124 55.2183 3.82281L71.9931 9.18066C73.6167 9.69863 74.7072 11.1921 74.7072 12.8967C74.7072 13.0868 74.6953 13.2637 74.6702 13.4412C74.4009 15.3703 72.7457 16.8047 70.8041 16.8047C70.7805 16.8047 70.7568 16.8045 70.7331 16.804L55.6064 16.5345C55.2113 16.5288 54.8241 16.6542 54.5091 16.8942L34.5355 32.124C33.9601 32.5628 33.7124 33.3093 33.9113 34.0049C34.1103 34.7008 34.715 35.2035 35.4353 35.2717L46.8213 36.3522C47.5718 36.4235 48.2829 36.7089 48.8737 37.1746C49.4646 37.6431 49.9052 38.2701 50.148 38.9847C50.8277 40.9985 49.8004 43.1543 47.8082 43.8923L46.4189 44.4077C40.4664 46.6139 33.9924 47.3522 27.6973 46.5438L18.6879 45.3853L18.6218 32.7681L18.5437 17.651L28.0507 13.627C28.9447 13.2485 29.3628 12.217 28.9843 11.3231C28.6057 10.429 27.5733 10.0115 26.6801 10.3896L16.4594 14.7162L3.13274 14.1619C2.65062 14.1412 2.18515 14.3194 1.83944 14.6529C1.4935 14.9864 1.29921 15.447 1.30178 15.9274L1.45905 46.3718C1.46397 47.3107 2.20577 48.0802 3.14375 48.1191L16.7903 48.687L27.2487 50.0318C29.0529 50.2636 30.8705 50.3787 32.6879 50.3787C35.5086 50.3787 38.3282 50.1003 41.0948 49.5514C39.34 52.722 38.4025 56.3063 38.4025 60.0001C38.4025 71.9088 48.0909 81.5972 59.9996 81.5972C62.1184 81.5972 64.1893 81.2961 66.1853 80.6993C66.2483 81.1793 66.3589 81.6612 66.5202 82.1387C67.4554 84.9059 69.9388 86.8721 72.8465 87.1478L79.7594 87.8028L77.1138 89.8203L60.796 89.8468C57.6221 89.7955 54.8248 91.7816 53.7415 94.6497L53.5676 94.6499C53.528 94.6492 53.4884 94.649 53.4488 94.649C50.0137 94.649 47.0512 97.0136 46.248 100.29C43.9368 101.292 42.2137 103.439 41.8459 106.072C41.3444 109.661 43.4856 113.066 46.9373 114.168L63.7112 119.526C64.7014 119.843 65.7271 120 66.7513 120C68.08 120 69.4063 119.735 70.6478 119.21L103.541 105.283L116.866 105.838C116.891 105.839 116.915 105.839 116.939 105.839C117.394 105.839 117.831 105.663 118.16 105.347C118.505 105.013 118.7 104.553 118.697 104.072L118.541 73.628ZM59.2468 26.6378C59.2355 26.6375 59.2236 26.6361 59.213 26.6375L47.5047 26.6565L49.1822 25.3775L62.1964 25.3569C61.4598 26.1617 60.398 26.657 59.2468 26.6378V26.6378ZM56.1549 20.0609L69.6416 20.3014C68.9073 21.2539 67.7493 21.852 66.4773 21.8347C66.4656 21.8344 66.4534 21.8344 66.4424 21.8344L53.8029 21.8544L56.1549 20.0609ZM4.96603 44.6761L4.82681 17.7511L15.0295 18.1753L15.1167 34.8163L15.1699 45.1003L4.96603 44.6761ZM60.6847 93.3611C60.7076 93.3611 60.7304 93.3613 60.7534 93.3618C60.7646 93.3618 60.7751 93.3613 60.7871 93.362L72.4952 93.343L70.818 94.622L57.8011 94.6427C58.5223 93.853 59.5564 93.3611 60.6847 93.3611V93.3611ZM53.4504 98.1642C53.4745 98.1642 53.4987 98.1644 53.5228 98.1646C53.5345 98.1649 53.5458 98.1644 53.5577 98.1649L66.1982 98.1449L63.8455 99.9391L50.3552 99.6972C51.0743 98.76 52.2021 98.1642 53.4504 98.1642V98.1642ZM69.2783 115.972C67.8531 116.575 66.2563 116.648 64.7821 116.177L48.0082 110.819C46.1917 110.239 45.0649 108.447 45.3288 106.558C45.5983 104.629 47.2539 103.194 49.1958 103.194C49.2194 103.194 49.2429 103.194 49.2665 103.194L64.3937 103.466C64.7842 103.47 65.1763 103.346 65.4913 103.106L85.4639 87.8743C86.0393 87.4353 86.2871 86.6888 86.0881 85.9932C85.8891 85.2976 85.2842 84.7948 84.5639 84.7266L73.1793 83.6476C71.65 83.5027 70.3436 82.4684 69.8519 81.0129C69.1719 79.0003 70.1994 76.845 72.1914 76.1065L73.5806 75.5916C79.5328 73.3854 86.007 72.6471 92.3026 73.4559L101.313 74.6138L101.457 102.349L69.2783 115.972ZM104.969 101.824L104.83 74.899L115.034 75.3234L115.173 102.248L104.969 101.824Z" fill="black"/>
</g>
<defs>
<clipPath id="clip0">
<rect width="120" height="120" fill="white"/>
</clipPath>
</defs>
</svg>
