<svg width="160" height="148" opacity="0.2" viewBox="0 0 160 148" fill="none" xmlns="http://www.w3.org/2000/svg">
<path d="M0.464971 81.2993C0.53282 105.003 12.261 127.497 31.6629 141.134C33.3338 142.362 35.8946 141.868 36.9905 140.105L60.7304 103.548C61.4104 102.501 61.1137 101.101 60.0677 100.42C59.0231 99.7405 57.6231 100.038 56.9423 101.085L40.2288 126.822C26.1612 115.967 17.498 99.3336 16.6641 81.5596L39.8694 80.6776C40.9732 85.8615 46.1547 89.7266 51.4565 89.2718C56.7323 88.9234 60.9471 84.8894 61.7321 79.8469L70.9619 79.4964L62.6975 92.2224C62.0175 93.2698 62.3142 94.67 63.3602 95.3503C64.406 96.0302 65.805 95.7329 66.4856 94.6857L75.5413 80.7409C77.2413 78.312 75.1841 74.7063 72.2437 74.9231C51.6896 75.7035 24.6984 76.7293 4.09079 77.5126C2.0494 77.5901 0.457097 79.2537 0.464971 81.2993ZM37.755 130.63L33.6293 136.983C15.9571 124.239 5.30215 103.787 4.98978 82.0033L12.1445 81.7315C13.0347 100.965 22.4596 118.964 37.755 130.63ZM51.1603 84.7602C48.3209 84.9966 45.4956 83.1637 44.5244 80.5011L57.074 80.0242C56.3042 82.6058 53.9883 84.5734 51.1603 84.7602Z" fill="#FFA101"/>
<path d="M12.6663 68.4441C12.5784 69.5161 12.9546 70.577 13.698 71.3545C14.442 72.1329 15.486 72.5562 16.5616 72.5148L60.3641 70.8502C60.3702 70.85 60.3762 70.849 60.3823 70.8485L72.0721 70.4041C73.3187 70.3565 74.2915 69.3066 74.2449 68.0587C74.1979 66.8113 73.1503 65.8385 71.9027 65.8852L62.2454 66.2523C61.728 64.0409 60.5508 62.0436 58.8212 60.5002C57.6501 59.4553 56.3023 58.6845 54.8537 58.2139C53.553 57.7912 52.1713 57.6111 50.7651 57.6927C45.4659 57.9943 41.2026 62.0198 40.3965 67.0834L29.3309 67.5043C29.774 63.8665 30.5658 60.259 31.7059 56.7488C41.4116 26.867 73.5935 10.4472 103.445 20.1465C133.296 29.8457 149.685 62.0472 139.98 91.9291C130.274 121.811 98.0919 138.231 68.2407 128.531C64.7296 127.391 61.3433 125.909 58.1393 124.127L92.615 71.0415C93.3848 69.8569 93.4301 68.3573 92.7342 67.1286C92.261 66.2942 91.5061 65.6898 90.6278 65.4047C90.213 65.27 89.7707 65.2064 89.3177 65.2235L82.4387 65.4849C81.192 65.5325 80.2193 66.5824 80.2658 67.8303C80.3128 69.0777 81.3613 70.0499 82.6081 70.0039L88.036 69.7974L47.3395 132.461C46.1676 134.189 46.7704 136.743 48.5886 137.766C53.9866 140.946 59.8166 143.433 65.9179 145.159C77.2031 148.35 89.2016 148.797 100.615 146.452C101.838 146.201 102.626 145.006 102.375 143.783C102.125 142.559 100.931 141.772 99.7091 142.022C88.8468 144.254 77.8921 143.845 67.1481 140.807C61.6761 139.259 56.4326 137.058 51.5577 134.261L55.6704 127.929C59.209 129.921 62.9565 131.569 66.8441 132.832C99.0643 143.301 133.8 125.579 144.276 93.3252C154.752 61.0718 137.062 26.3146 104.842 15.8456C72.6216 5.37656 37.8856 23.0995 27.4096 55.3529C26.1045 59.3709 25.2171 63.508 24.7594 67.6781L17.2442 67.9639C17.6369 63.8115 18.4159 59.6584 19.5613 55.6053C24.5774 37.8612 36.1969 23.1305 52.2799 14.1267C68.3628 5.12287 86.9828 2.92468 104.71 7.93572C141.303 18.2869 162.653 56.5024 152.298 93.135C146.287 114.399 130.299 131.632 109.531 139.232C108.359 139.66 107.756 140.959 108.184 142.132C108.612 143.305 109.91 143.907 111.081 143.478C121.785 139.561 131.572 133.118 139.383 124.846C147.455 116.296 153.424 105.756 156.645 94.3638C161.99 75.4557 159.659 55.5997 150.082 38.4541C140.979 22.1558 126.366 10.1615 108.719 4.42824C107.802 4.13004 106.873 3.84804 105.939 3.58421C87.0514 -1.75561 67.2119 0.586811 50.0756 10.18C32.9388 19.7734 20.5581 35.4692 15.2135 54.3759C13.9107 58.9855 13.0539 63.7187 12.6663 68.4441ZM51.0212 62.2069L51.0245 62.2067C52.7917 62.1045 54.4923 62.697 55.8134 63.8759C56.6109 64.5873 57.2117 65.4606 57.5845 66.4294L45.0601 66.9057C45.848 64.322 48.1856 62.3674 51.0212 62.2069Z" fill="#FFA101"/>
<path d="M86.8414 106.362C81.6293 104.669 76.0102 107.536 74.3156 112.753C72.6209 117.971 75.4826 123.593 80.6947 125.287C85.9067 126.98 91.5258 124.113 93.2205 118.896C94.9151 113.678 92.0534 108.056 86.8414 106.362ZM82.0916 120.986C79.2487 120.062 77.6878 116.995 78.6121 114.149C79.5365 111.304 82.6015 109.74 85.4444 110.663C88.2873 111.587 89.8482 114.654 88.9239 117.5C87.9996 120.346 84.9342 121.909 82.0916 120.986Z" fill="#FFA101"/>
<path d="M101.955 24.7339C96.7426 23.0404 91.1235 25.9074 89.4288 31.1248C87.7342 36.3422 90.5959 41.9647 95.8079 43.6582C101.02 45.3517 106.639 42.4847 108.334 37.2674C110.028 32.05 107.167 26.4274 101.955 24.7339ZM97.2049 39.3573C94.362 38.4335 92.8011 35.3666 93.7254 32.5208C94.6497 29.675 97.7147 28.1112 100.558 29.0349C103.401 29.9586 104.962 33.0255 104.037 35.8713C103.113 38.7171 100.048 40.2809 97.2049 39.3573Z" fill="#FFA101"/>
<path d="M127.081 99.4666C128.776 94.2492 125.914 88.6266 120.702 86.9331C115.49 85.2396 109.871 88.1066 108.176 93.324C106.482 98.5414 109.343 104.164 114.555 105.857C119.767 107.551 125.387 104.684 127.081 99.4666ZM115.952 101.556C113.11 100.633 111.549 97.5659 112.473 94.72C113.397 91.8742 116.462 90.3104 119.305 91.2341C122.148 92.1578 123.709 95.2247 122.785 98.0705C121.86 100.916 118.795 102.48 115.952 101.556Z" fill="#FFA101"/>
<path d="M127.081 47.7965C121.869 46.103 116.249 48.97 114.555 54.1874C112.86 59.4047 115.722 65.0273 120.934 66.7208C126.146 68.4143 131.765 65.5473 133.46 60.3299C135.154 55.1125 132.293 49.49 127.081 47.7965ZM122.331 62.4198C119.488 61.4961 117.927 58.4292 118.851 55.5834C119.776 52.7376 122.841 51.1738 125.684 52.0975C128.526 53.0212 130.087 56.0881 129.163 58.9339C128.239 61.7797 125.173 63.3435 122.331 62.4198Z" fill="#FFA101"/>
<path d="M56.6653 47.7198C55.4503 47.4369 54.2354 48.1928 53.9522 49.409C53.6689 50.6255 54.4261 51.8431 55.6387 52.1236C60.6184 53.2842 65.7589 50.3759 67.3415 45.5034C69.0362 40.286 66.1745 34.6634 60.9624 32.9699C55.7504 31.2764 50.1313 34.1434 48.4366 39.3608C47.7656 40.8663 48.0415 42.9406 49.9225 43.2741C51.5398 43.5879 52.5529 42.2138 52.7332 40.7569C53.6575 37.911 56.7225 36.3472 59.5655 37.2709C62.4084 38.1946 63.9693 41.2615 63.045 44.1074C62.1819 46.7655 59.3796 48.3522 56.6653 47.7198Z" fill="#FFA101"/>
<path d="M98.7584 105.142C98.9577 104.878 103.619 98.5985 101.794 92.6421C99.9771 86.7149 92.5827 83.95 92.2691 83.8351C92.2427 83.8256 92.2169 83.8166 92.1908 83.8081C91.2776 83.5114 90.2722 83.8253 89.6899 84.5973C89.4906 84.8619 84.8285 91.141 86.6541 97.0977C88.4714 103.025 95.8656 105.79 96.1792 105.904C97.1144 106.25 98.1595 105.936 98.7584 105.142ZM96.1024 100.905C94.212 99.8951 91.6855 98.0928 90.973 95.7694C90.2705 93.4776 91.3456 90.6677 92.3453 88.8341C94.2357 89.8443 96.7622 91.6466 97.4743 93.9702C98.1768 96.262 97.1015 99.0715 96.1024 100.905Z" fill="#FFA101"/>
<path d="M76.9765 58.2655C81.7383 62.2314 89.4404 60.4964 89.7663 60.4203C90.7344 60.195 91.442 59.3627 91.5095 58.3702C91.5316 58.0398 92.0038 50.2323 87.2193 46.2476C86.1671 45.371 84.9719 44.7734 83.744 44.3745C79.4147 42.9678 74.6833 44.0336 74.4298 44.0926C73.4617 44.3182 72.7541 45.1503 72.6867 46.1427C72.6639 46.4732 72.192 54.2806 76.9765 58.2655ZM84.3282 49.724C86.1691 51.2573 86.8042 54.1971 86.9697 56.279C84.8345 56.468 81.7334 56.3429 79.8675 54.7891C78.0264 53.2558 77.3912 50.316 77.2257 48.2341C79.3611 48.0448 82.4614 48.1693 84.3282 49.724Z" fill="#FFA101"/>
<path d="M98.3581 67.8426C97.4604 68.2705 96.9474 69.2348 97.094 70.2185C97.1425 70.5459 98.3525 78.2724 103.879 81.1386C109.38 83.991 116.533 80.6453 116.835 80.5016C117.732 80.0737 118.245 79.1093 118.099 78.1257C118.05 77.7983 116.841 70.0719 111.313 67.2055C110.842 66.961 110.358 66.762 109.868 66.6026C104.637 64.9036 98.6339 67.7112 98.3581 67.8426ZM113.217 77.0563C111.171 77.6989 108.115 78.2407 105.96 77.1234C103.833 76.0206 102.583 73.2856 101.976 71.2878C104.022 70.6451 107.079 70.1033 109.233 71.2208C111.36 72.3235 112.609 75.0588 113.217 77.0563Z" fill="#FFA101"/>
<path d="M45.6563 95.2515C45.3307 95.1457 44.9783 95.1133 44.6234 95.1666C44.2961 95.2159 36.5772 96.438 33.7154 101.974C30.8679 107.482 34.2142 114.637 34.358 114.939C34.7857 115.837 35.7495 116.349 36.7323 116.201C37.0596 116.152 44.7782 114.93 47.64 109.394C50.4875 103.885 47.1415 96.7304 46.9977 96.4285C46.7245 95.8547 46.2324 95.4387 45.6563 95.2515ZM43.6274 107.318C42.5264 109.448 39.7943 110.702 37.7988 111.313C37.1553 109.267 36.6119 106.209 37.7278 104.05C38.8273 101.922 41.5543 100.668 43.5494 100.057C44.15 101.945 44.8026 105.044 43.6274 107.318Z" fill="#FFA101"/>
<path d="M136.225 80.0896C137.38 76.5323 135.429 72.6986 131.876 71.544C128.322 70.3894 124.491 72.3442 123.335 75.9014C122.18 79.4586 124.131 83.2924 127.685 84.447C131.238 85.6016 135.07 83.6468 136.225 80.0896ZM129.082 80.146C127.897 79.761 127.247 78.4834 127.632 77.2975C128.017 76.1115 129.294 75.4601 130.479 75.845C131.663 76.2299 132.314 77.5076 131.928 78.6935C131.543 79.8794 130.266 80.5308 129.082 80.146Z" fill="#FFA101"/>
<path d="M107.286 108.251C103.733 107.096 99.9016 109.05 98.7462 112.608C97.5907 116.165 99.542 119.999 103.096 121.154C106.649 122.308 110.48 120.354 111.636 116.796C112.791 113.239 110.84 109.405 107.286 108.251ZM104.493 116.853C103.308 116.468 102.658 115.19 103.043 114.004C103.428 112.818 104.705 112.167 105.889 112.552C107.074 112.936 107.724 114.214 107.339 115.4C106.954 116.586 105.677 117.237 104.493 116.853Z" fill="#FFA101"/>
<path d="M22.2813 89.665C21.1258 93.2225 23.0771 97.0559 26.6306 98.2105C30.1842 99.3651 34.0155 97.4106 35.171 93.8531C36.3265 90.2956 34.3751 86.4622 30.8216 85.3075C27.268 84.1529 23.4367 86.1075 22.2813 89.665ZM30.8744 92.4571C30.4892 93.643 29.2123 94.2945 28.0276 93.9095C26.8429 93.5246 26.1926 92.2469 26.5778 91.061C26.963 89.8751 28.2399 89.2236 29.4246 89.6085C30.6093 89.9935 31.2596 91.2711 30.8744 92.4571Z" fill="#FFA101"/>
<path d="M75.614 37.0968C79.1676 38.2515 82.999 36.2966 84.1544 32.7394C85.3098 29.1822 83.3585 25.3485 79.805 24.1939C76.2514 23.0393 72.42 24.9941 71.2646 28.5513C70.1092 32.1085 72.0602 35.9421 75.614 37.0968ZM78.408 28.4949C79.5927 28.8798 80.243 30.1575 79.8578 31.3434C79.4726 32.5293 78.1957 33.1808 77.011 32.7959C75.8263 32.4109 75.176 31.1333 75.5612 29.9474C75.9464 28.7614 77.2233 28.1099 78.408 28.4949Z" fill="#FFA101"/>
<path d="M105.89 48.2022C102.337 47.0476 98.5055 49.0024 97.3501 52.5596C96.1947 56.1168 98.1459 59.9506 101.699 61.1052C105.253 62.2598 109.084 60.305 110.24 56.7478C111.395 53.1905 109.444 49.3568 105.89 48.2022ZM103.096 56.8042C101.912 56.4193 101.261 55.1416 101.647 53.9557C102.032 52.7697 103.309 52.1183 104.493 52.5032C105.678 52.8881 106.328 54.1658 105.943 55.3517C105.558 56.5376 104.281 57.189 103.096 56.8042Z" fill="#FFA101"/>
</svg>
