<svg width="234" height="21" viewBox="0 0 234 21" fill="none" xmlns="http://www.w3.org/2000/svg">
<path d="M5.82295 0.590808C3.0439 1.39527 1.12416 3.20531 0.337977 5.78324C-0.868717 9.67757 1.25214 14.1752 5.16475 16.0584C7.17591 17.0091 8.40089 17.2285 11.4359 17.1006C16.7746 16.9177 20.998 15.2357 29.0609 10.1164C30.5236 9.18392 32.3702 8.08693 33.1747 7.6847C35.2772 6.64255 39.9943 4.64968 42.7734 3.64411L45.1685 2.76651L44.2543 2.63853C42.0055 2.346 37.8003 3.51612 32.2239 6.00264C29.4266 7.2459 28.8598 7.55672 23.9234 10.3906C20.8335 12.1824 17.5791 13.6999 15.8787 14.1387C13.1545 14.8517 8.85797 14.3032 6.79196 12.9685C4.79909 11.6887 3.22673 9.47645 2.97076 7.62985C2.64167 5.27131 4.92707 3.27844 8.1632 3.11389C9.57101 3.04076 9.75385 3.07733 10.8326 3.60754C12.2221 4.28402 13.6665 5.65526 14.2515 6.86195C14.5806 7.50187 14.7086 8.14178 14.7452 9.23877C14.7817 10.0798 14.8732 10.7563 14.9463 10.7563C15.2205 10.7563 16.4272 8.45259 16.6283 7.50187C17.25 4.75938 15.3302 2.1266 11.8199 0.883339C10.3938 0.371409 7.10278 0.20686 5.82295 0.590808Z" fill="#FFDFA9"/>
<path d="M223.028 0.62736C218.786 1.74264 216.464 4.77765 217.433 7.8858C217.707 8.79996 218.804 10.7563 219.024 10.7563C219.097 10.7563 219.188 10.0798 219.225 9.23876C219.261 8.14177 219.389 7.50185 219.719 6.86194C220.304 5.65525 221.748 4.28401 223.137 3.60753C224.216 3.07731 224.399 3.04075 225.807 3.11388C227.69 3.22358 228.97 3.73551 229.957 4.81422C230.359 5.25302 230.78 5.9295 230.908 6.35001C231.511 8.36117 229.591 11.579 226.849 13.1879C224.929 14.3215 220.578 14.7969 218.11 14.1569C216.336 13.6816 213.411 12.3286 210.266 10.5186C204.982 7.48357 204.562 7.26417 201.746 6.00263C196.17 3.51611 191.965 2.34598 189.716 2.63852L188.802 2.7665L191.197 3.64409C193.976 4.64967 198.693 6.64254 200.795 7.68469C201.6 8.08692 203.446 9.18391 204.909 10.1164C212.899 15.1808 217.195 16.8994 222.406 17.1005C225.423 17.2285 226.886 16.9908 228.805 16.0584C232.7 14.1752 234.82 9.64099 233.632 5.78323C232.828 3.16873 230.871 1.34041 228.056 0.590794C226.867 0.261696 224.308 0.279979 223.028 0.62736Z" fill="#FFDFA9"/>
<path d="M170.592 1.63297C162.821 2.07177 152.93 3.84524 144.501 6.29519C143.295 6.64258 140.296 7.57502 137.828 8.37948C124.262 12.7309 118.832 13.8279 111.646 13.6451C109.964 13.6085 108.611 13.5902 108.63 13.6085C108.666 13.6451 109.708 13.8096 110.952 13.9924C114.169 14.4495 122.763 14.4312 126.492 13.9924C134.683 12.9869 141.613 11.3596 151.303 8.17837C156.221 6.56944 158.397 6.05751 163.059 5.38103C170.628 4.28404 178.271 4.46687 182.439 5.83811C185.803 6.93511 187.924 8.76343 187.924 10.5369C187.924 11.2682 187.833 11.4511 187.138 12.1093C185.949 13.2611 184.633 13.5902 181.434 13.5902C179.166 13.5902 178.746 13.5354 177.777 13.1514C176.241 12.5298 174.961 11.1951 173.992 9.20223C173.151 7.44704 173.06 7.44704 172.475 9.25708C171.615 11.8716 173.096 14.3398 176.497 15.967C178.673 17.0092 180.062 17.3566 182.713 17.4663C186.242 17.6308 188.491 16.8995 190.465 14.9797C193.263 12.2372 192.678 8.6903 188.893 5.67356C185.949 3.29674 182.275 1.96207 177.832 1.61469C175.327 1.41357 174.157 1.41357 170.592 1.63297Z" fill="#FFDFA9"/>
<path d="M45.7535 4.53999C43.5047 4.77767 41.8044 5.509 40.3417 6.88024C39.007 8.1235 38.4768 9.25706 38.4585 10.8477C38.4585 11.963 38.5499 12.2738 39.0802 13.2794C39.7932 14.5958 41.7861 16.5704 43.3402 17.4845C44.8942 18.3987 47.0882 19.3128 49.0994 19.8431C50.8546 20.3184 51.0191 20.3367 56.2847 20.355C62.2999 20.355 64.8047 20.1356 71.2769 19.0569C78.7914 17.7953 83.7644 16.5521 92.3941 13.7547C102.194 10.5735 107.002 9.33019 112.231 8.65372C114.572 8.3429 119.764 8.21492 121.556 8.43432C122.342 8.52573 122.415 8.50745 121.922 8.37947C120.367 7.99552 115.87 7.64814 112.177 7.64814C102.157 7.64814 92.6866 9.4399 79.2302 13.8644C74.4765 15.4185 71.2221 16.1681 66.3405 16.8263C63.8357 17.1554 62.4279 17.2285 58.113 17.2468C53.3594 17.2468 52.7195 17.2103 50.7997 16.8263C48.3132 16.3144 46.5032 15.6562 45.0771 14.7055C41.0365 12.0178 42.1883 9.01938 47.4905 8.37947C50.8363 7.95895 53.6153 8.74513 55.206 10.5369C55.919 11.3413 57.1988 13.6816 57.1988 14.1753C57.1988 14.7055 57.5462 14.3581 57.9302 13.4439C58.497 12.1824 58.5152 10.61 57.985 9.43989C56.5406 6.25861 50.9094 4.00978 45.7535 4.53999Z" fill="#FFDFA9"/>
</svg>
