<svg width="14" height="14" viewBox="0 0 14 14" fill="none" xmlns="http://www.w3.org/2000/svg">
<path d="M13.5723 5.1314L9.60508 4.55484L7.83165 0.959527C7.78321 0.86109 7.70352 0.781402 7.60508 0.732965C7.35821 0.61109 7.05821 0.712652 6.93477 0.959527L5.16133 4.55484L1.19415 5.1314C1.08477 5.14703 0.984771 5.19859 0.908208 5.27671C0.815648 5.37185 0.764644 5.49984 0.766401 5.63256C0.768159 5.76528 0.822536 5.89188 0.917583 5.98453L3.7879 8.78296L3.10977 12.7345C3.09387 12.8264 3.10404 12.921 3.13913 13.0074C3.17423 13.0939 3.23284 13.1687 3.30832 13.2236C3.3838 13.2784 3.47313 13.3109 3.56618 13.3176C3.65923 13.3242 3.75228 13.3046 3.83477 13.2611L7.38321 11.3955L10.9316 13.2611C11.0285 13.3127 11.141 13.3298 11.2488 13.3111C11.5207 13.2642 11.7035 13.0064 11.6566 12.7345L10.9785 8.78296L13.8488 5.98453C13.927 5.90797 13.9785 5.80796 13.9941 5.69859C14.0363 5.42515 13.8457 5.17203 13.5723 5.1314Z" fill="#FFA101"/>
</svg>
